<?xml version="1.0" encoding="UTF-8" standalone="no"?>
<!-- Created with Inkscape (http://www.inkscape.org/) -->

<svg
   width="500"
   height="500"
   viewBox="0 0 132.29167 132.29167"
   version="1.1"
   id="svg1"
   inkscape:version="1.4.2 (ebf0e940, 2025-05-08)"
   sodipodi:docname="WebIcon.svg"
   inkscape:export-filename="../RugbyREF (Website)/rugbyref-site/public/images/menu_contact_us.svg"
   inkscape:export-xdpi="192"
   inkscape:export-ydpi="192"
   xml:space="preserve"
   xmlns:inkscape="http://www.inkscape.org/namespaces/inkscape"
   xmlns:sodipodi="http://sodipodi.sourceforge.net/DTD/sodipodi-0.dtd"
   xmlns="http://www.w3.org/2000/svg"
   xmlns:svg="http://www.w3.org/2000/svg"><sodipodi:namedview
     id="namedview1"
     pagecolor="#ffffff"
     bordercolor="#000000"
     borderopacity="0.25"
     inkscape:showpageshadow="2"
     inkscape:pageopacity="0.0"
     inkscape:pagecheckerboard="0"
     inkscape:deskcolor="#d1d1d1"
     inkscape:document-units="mm"
     inkscape:zoom="0.90509668"
     inkscape:cx="180.64369"
     inkscape:cy="157.99417"
     inkscape:window-width="1824"
     inkscape:window-height="945"
     inkscape:window-x="0"
     inkscape:window-y="25"
     inkscape:window-maximized="0"
     inkscape:current-layer="layer1"
     showgrid="false"><inkscape:page
       x="0"
       y="0"
       width="132.29167"
       height="132.29167"
       id="page2"
       margin="0"
       bleed="0" /></sodipodi:namedview><defs
     id="defs1" /><g
     inkscape:label="Layer 1"
     inkscape:groupmode="layer"
     id="layer1"><g
       id="g6"
       transform="matrix(0.80645246,0,0,0.80645246,11.635477,106.24679)"><g
         id="g5"
         style="fill:#ccfc14;fill-opacity:1"
         transform="translate(150.89518,-97.565104)"><rect
           style="fill:#ccfc14;fill-opacity:1;stroke-width:1.007"
           id="rect4"
           width="24.391275"
           height="85.576172"
           x="-95.498047"
           y="18.603516"
           ry="5.8319073" /><rect
           style="fill:#ccfc14;fill-opacity:1;stroke-width:0.484914"
           id="rect4-4"
           width="24.391275"
           height="19.84375"
           x="-95.498047"
           y="-8.4997406"
           ry="5.4864411" /></g><path
         id="path5"
         style="fill:#ccfc14;fill-opacity:1;stroke-width:0.901085"
         d="M 67.59303,-127.22505 A 77.5,77.5 0 0 0 -9.9071481,-49.72487 77.5,77.5 0 0 0 67.59303,27.774787 77.5,77.5 0 0 0 145.09269,-49.72487 77.5,77.5 0 0 0 67.59303,-127.22505 Z m 0,7.4998 A 70,70 0 0 1 137.59289,-49.72487 70,70 0 0 1 67.59303,20.274987 70,70 0 0 1 -2.4073481,-49.72487 70,70 0 0 1 67.59303,-119.72525 Z" /></g></g></svg>
