<?xml version="1.0" encoding="UTF-8" standalone="no"?>
<!-- Created with Inkscape (http://www.inkscape.org/) -->

<svg
   width="645mm"
   height="148mm"
   viewBox="0 0 645 148"
   version="1.1"
   id="svg1"
   inkscape:version="1.4.2 (ebf0e940, 2025-05-08)"
   sodipodi:docname="rr_logo_home.svg"
   inkscape:export-filename="../logo_sideline.png"
   inkscape:export-xdpi="192"
   inkscape:export-ydpi="192"
   xml:space="preserve"
   xmlns:inkscape="http://www.inkscape.org/namespaces/inkscape"
   xmlns:sodipodi="http://sodipodi.sourceforge.net/DTD/sodipodi-0.dtd"
   xmlns:xlink="http://www.w3.org/1999/xlink"
   xmlns="http://www.w3.org/2000/svg"
   xmlns:svg="http://www.w3.org/2000/svg"><sodipodi:namedview
     id="namedview1"
     pagecolor="#ffffff"
     bordercolor="#000000"
     borderopacity="0.25"
     inkscape:showpageshadow="2"
     inkscape:pageopacity="0.0"
     inkscape:pagecheckerboard="0"
     inkscape:deskcolor="#d1d1d1"
     inkscape:document-units="mm"
     inkscape:zoom="0.32"
     inkscape:cx="1095.3125"
     inkscape:cy="831.25"
     inkscape:window-width="1824"
     inkscape:window-height="945"
     inkscape:window-x="0"
     inkscape:window-y="25"
     inkscape:window-maximized="0"
     inkscape:current-layer="layer1"
     showgrid="false" /><defs
     id="defs1"><linearGradient
       id="linearGradient8"
       inkscape:collect="always"><stop
         style="stop-color:#00ff00;stop-opacity:0.15000001;"
         offset="0"
         id="stop8" /><stop
         style="stop-color:#00ff00;stop-opacity:1;"
         offset="1"
         id="stop9" /></linearGradient><linearGradient
       inkscape:collect="always"
       xlink:href="#linearGradient8"
       id="linearGradient9"
       x1="-218.28123"
       y1="287.73276"
       x2="119.06252"
       y2="287.73276"
       gradientUnits="userSpaceOnUse"
       gradientTransform="matrix(0.98897059,0,0,1,-0.45622575,0)" /></defs><g
     inkscape:label="Layer 1"
     inkscape:groupmode="layer"
     id="layer1"><g
       id="g16"
       transform="matrix(1.1451699,0,0,1.1451699,253.44119,-199.81761)"><path
         id="rect8"
         style="fill:url(#linearGradient9);stroke:none;stroke-width:0.937812"
         d="m -213.36992,275.23281 c -1.63988,0 -2.96003,1.32015 -2.96003,2.96003 v 19.07997 c 0,1.63988 1.32015,2.96003 2.96003,2.96003 h 327.70299 c 1.63988,0 2.96003,-1.32015 2.96003,-2.96003 v -19.07997 c 0,-1.63988 -1.32015,-2.96003 -2.96003,-2.96003 H 89.07415 c -1.29419,2.40705 -2.65055,4.17843 -4.068486,5.31441 -2.792592,2.23728 -6.981499,3.35586 -12.566675,3.35586 h -9.621118 v -8.67027 h -85.501758 c -2.003311,2.48496 -4.757376,4.50717 -8.261511,6.06682 -4.705797,2.15478 -10.322927,3.23236 -16.851685,3.23236 -8.097362,0 -14.519892,-1.69892 -19.268074,-5.09685 -1.713477,-1.22217 -3.143372,-2.62304 -4.289144,-4.20233 z" /><path
         d="m 123.09282,275.80098 h 10.6725 q 2.57495,0 4.20123,0.7353 1.62629,0.7353 2.5072,1.83823 0.8809,1.10294 1.18583,2.40642 0.33881,1.30347 0.33881,2.40642 0,1.10294 -0.33881,2.40642 -0.30493,1.27005 -1.18583,2.37299 -0.88091,1.10293 -2.5072,1.83823 -1.62628,0.70188 -4.20123,0.70188 h -6.43739 v 9.15775 h -4.23511 z m 4.23511,11.29679 h 6.20023 q 0.71148,0 1.45687,-0.20053 0.74538,-0.20053 1.35524,-0.63503 0.64373,-0.46791 1.01643,-1.20321 0.40657,-0.76871 0.40657,-1.90507 0,-1.16979 -0.33881,-1.9385 -0.33881,-0.76872 -0.91479,-1.20321 -0.57597,-0.46792 -1.32136,-0.63503 -0.74538,-0.16711 -1.5924,-0.16711 h -6.26798 z m 18.26819,-11.29679 h 11.5534 q 3.99796,0 5.99692,1.70455 1.99898,1.70455 1.99898,4.74599 0,1.70455 -0.50822,2.8409 -0.50821,1.10295 -1.18584,1.80482 -0.67761,0.66845 -1.35522,0.96926 -0.64375,0.3008 -0.94866,0.40106 v 0.0668 q 0.54208,0.0668 1.15194,0.33422 0.64374,0.26739 1.18584,0.86899 0.54209,0.56817 0.88089,1.504 0.3727,0.93584 0.3727,2.33958 0,2.10562 0.30493,3.84358 0.33881,1.70454 1.01642,2.43984 h -4.54004 q -0.47433,-0.76872 -0.57597,-1.70455 -0.0677,-0.93582 -0.0677,-1.80481 0,-1.6377 -0.20329,-2.80748 -0.20328,-1.20321 -0.74537,-1.97193 -0.54211,-0.80214 -1.49076,-1.16979 -0.91479,-0.36764 -2.37168,-0.36764 h -6.23409 v 9.8262 h -4.23511 z m 4.23511,10.86231 h 6.94559 q 2.03286,0 3.08317,-0.93584 1.05032,-0.96925 1.05032,-2.87432 0,-1.13637 -0.33882,-1.83825 -0.3388,-0.73528 -0.94866,-1.13635 -0.57598,-0.40108 -1.35524,-0.53477 -0.74538,-0.13368 -1.55852,-0.13368 h -6.87784 z m 29.8216,-8.02139 q -1.93121,0 -3.35421,0.76871 -1.38912,0.76872 -2.27003,2.07219 -0.88089,1.27006 -1.32135,2.90776 -0.40657,1.63769 -0.40657,3.34225 0,1.70454 0.40657,3.34224 0.44046,1.63769 1.32135,2.94117 0.88091,1.27005 2.27003,2.03877 1.423,0.76871 3.35421,0.76871 1.93123,0 3.32034,-0.76871 1.423,-0.76872 2.30391,-2.03877 0.88089,-1.30348 1.28746,-2.94117 0.44046,-1.6377 0.44046,-3.34224 0,-1.70456 -0.44046,-3.34225 -0.40657,-1.6377 -1.28746,-2.90776 -0.88091,-1.30347 -2.30391,-2.07219 -1.38911,-0.76871 -3.32034,-0.76871 z m 0,-3.4091 q 2.71048,0 4.84498,1.00268 2.16839,1.00268 3.65914,2.70722 1.49077,1.70454 2.27002,3.97727 0.81315,2.27273 0.81315,4.81284 0,2.57353 -0.81315,4.84625 -0.77925,2.27273 -2.27002,3.97727 -1.49075,1.70455 -3.65914,2.70722 -2.1345,0.96925 -4.84498,0.96925 -2.71048,0 -4.87885,-0.96925 -2.13451,-1.00267 -3.62526,-2.70722 -1.49077,-1.70454 -2.30391,-3.97727 -0.77925,-2.27272 -0.77925,-4.84625 0,-2.54011 0.77925,-4.81284 0.81314,-2.27273 2.30391,-3.97727 1.49075,-1.70454 3.62526,-2.70722 2.16837,-1.00268 4.87885,-1.00268 z m 31.14931,0.56818 h 4.50616 l 9.31727,23.86364 h -4.54005 l -2.27002,-6.31684 h -9.65607 l -2.27003,6.31684 h -4.37064 z m -1.49077,14.37166 h 7.38605 l -3.62526,-10.26069 h -0.10168 z m 33.85342,-6.78476 q -0.27105,-1.0361 -0.74538,-1.90508 -0.47434,-0.86898 -1.21971,-1.504 -0.74539,-0.63504 -1.76181,-0.96926 -0.98255,-0.36764 -2.3039,-0.36764 -1.93123,0 -3.35422,0.76871 -1.38912,0.76872 -2.27002,2.07219 -0.88091,1.27006 -1.32135,2.90776 -0.40659,1.63769 -0.40659,3.34225 0,1.70454 0.40659,3.34224 0.44044,1.63769 1.32135,2.94117 0.8809,1.27005 2.27002,2.03877 1.42299,0.76871 3.35422,0.76871 1.42299,0 2.50719,-0.46791 1.08418,-0.50133 1.86344,-1.33689 0.77927,-0.86899 1.21972,-2.00536 0.44045,-1.13635 0.57597,-2.43983 h 4.13349 q -0.13553,2.13903 -0.94868,3.91043 -0.77926,1.77139 -2.1345,3.07486 -1.35523,1.27006 -3.1848,1.97192 -1.82958,0.70188 -4.03183,0.70188 -2.71048,0 -4.87887,-0.96925 -2.1345,-1.00267 -3.62527,-2.70722 -1.49075,-1.70454 -2.30389,-3.97727 -0.77927,-2.27272 -0.77927,-4.84625 0,-2.54011 0.77927,-4.81284 0.81314,-2.27273 2.30389,-3.97727 1.49077,-1.70454 3.62527,-2.70722 2.16839,-1.00268 4.87887,-1.00268 2.03285,0 3.82853,0.56818 1.7957,0.53477 3.15094,1.60429 1.38912,1.03608 2.23614,2.5401 0.84702,1.50401 1.0503,3.44251 z m 24.36676,0 q -0.27104,-1.0361 -0.74538,-1.90508 -0.47433,-0.86898 -1.21971,-1.504 -0.74539,-0.63504 -1.76182,-0.96926 -0.98255,-0.36764 -2.30391,-0.36764 -1.9312,0 -3.3542,0.76871 -1.38912,0.76872 -2.27003,2.07219 -0.8809,1.27006 -1.32136,2.90776 -0.40656,1.63769 -0.40656,3.34225 0,1.70454 0.40656,3.34224 0.44046,1.63769 1.32136,2.94117 0.88091,1.27005 2.27003,2.03877 1.423,0.76871 3.3542,0.76871 1.42302,0 2.5072,-0.46791 1.08419,-0.50133 1.86346,-1.33689 0.77925,-0.86899 1.21971,-2.00536 0.44045,-1.13635 0.57597,-2.43983 h 4.13347 q -0.13552,2.13903 -0.94866,3.91043 -0.77926,1.77139 -2.1345,3.07486 -1.35524,1.27006 -3.1848,1.97192 -1.82958,0.70188 -4.03185,0.70188 -2.71046,0 -4.87884,-0.96925 -2.13451,-1.00267 -3.62527,-2.70722 -1.49075,-1.70454 -2.30391,-3.97727 -0.77925,-2.27272 -0.77925,-4.84625 0,-2.54011 0.77925,-4.81284 0.81316,-2.27273 2.30391,-3.97727 1.49076,-1.70454 3.62527,-2.70722 2.16838,-1.00268 4.87884,-1.00268 2.03287,0 3.82855,0.56818 1.7957,0.53477 3.15094,1.60429 1.38912,1.03608 2.23613,2.5401 0.84703,1.50401 1.05032,3.44251 z m 8.03614,-7.5869 h 17.41481 v 3.60963 h -13.17969 v 6.25 h 12.19714 v 3.40908 h -12.19714 v 6.9853 h 13.41686 v 3.60963 h -17.65198 z m 24.02792,15.9091 q 0,1.37032 0.47433,2.33956 0.47433,0.96926 1.32135,1.60429 0.84703,0.6016 1.93122,0.9024 1.11807,0.26737 2.40555,0.26737 1.38912,0 2.37166,-0.30079 0.98255,-0.33423 1.5924,-0.83556 0.60986,-0.50134 0.88091,-1.13636 0.27105,-0.66846 0.27105,-1.3369 0,-1.37032 -0.64373,-2.00535 -0.60986,-0.66845 -1.35525,-0.93584 -1.28746,-0.46791 -3.01541,-0.86897 -1.69404,-0.43449 -4.20123,-1.10295 -1.55852,-0.40106 -2.60883,-1.03609 -1.01644,-0.66845 -1.62628,-1.47059 -0.60985,-0.80213 -0.88091,-1.70454 -0.23717,-0.90241 -0.23717,-1.83824 0,-1.80481 0.74539,-3.10829 0.77925,-1.3369 2.03285,-2.20588 1.25359,-0.86898 2.846,-1.27006 1.5924,-0.43449 3.2187,-0.43449 1.89732,0 3.55749,0.50135 1.69405,0.46791 2.94765,1.43716 1.28746,0.96924 2.03285,2.40641 0.74538,1.40374 0.74538,3.27541 h -4.23513 q -0.1694,-2.30616 -1.5924,-3.24199 -1.42299,-0.96924 -3.62525,-0.96924 -0.74538,0 -1.52465,0.16711 -0.77925,0.13369 -1.42301,0.50133 -0.64373,0.33422 -1.08419,0.93583 -0.40656,0.6016 -0.40656,1.50401 0,1.27006 0.77927,2.00534 0.81313,0.70188 2.1006,1.06953 0.13553,0.0334 1.05032,0.30079 0.94866,0.23397 2.10062,0.53477 1.15194,0.3008 2.23613,0.6016 1.11808,0.26739 1.59242,0.40108 1.18582,0.36764 2.06673,1.00266 0.88091,0.63503 1.45689,1.4706 0.60986,0.80213 0.8809,1.73796 0.30492,0.93583 0.30492,1.87166 0,2.00535 -0.84702,3.44251 -0.81313,1.40375 -2.16837,2.30615 -1.35524,0.9024 -3.08316,1.30348 -1.72794,0.43449 -3.52363,0.43449 -2.06675,0 -3.89631,-0.50133 -1.82956,-0.50135 -3.1848,-1.53743 -1.35524,-1.0361 -2.16839,-2.64039 -0.81314,-1.6377 -0.84703,-3.84357 z m 21.85959,0 q 0,1.37032 0.47433,2.33956 0.47433,0.96926 1.32136,1.60429 0.84702,0.6016 1.9312,0.9024 1.11808,0.26737 2.40556,0.26737 1.38911,0 2.37166,-0.30079 0.98256,-0.33423 1.59241,-0.83556 0.60986,-0.50134 0.8809,-1.13636 0.27105,-0.66846 0.27105,-1.3369 0,-1.37032 -0.64373,-2.00535 -0.60987,-0.66845 -1.35524,-0.93584 -1.28748,-0.46791 -3.01541,-0.86897 -1.69404,-0.43449 -4.20124,-1.10295 -1.55852,-0.40106 -2.60884,-1.03609 -1.01641,-0.66845 -1.62627,-1.47059 -0.60986,-0.80213 -0.88092,-1.70454 -0.23715,-0.90241 -0.23715,-1.83824 0,-1.80481 0.74537,-3.10829 0.77928,-1.3369 2.03286,-2.20588 1.2536,-0.86898 2.846,-1.27006 1.5924,-0.43449 3.21869,-0.43449 1.89733,0 3.5575,0.50135 1.69405,0.46791 2.94764,1.43716 1.28749,0.96924 2.03285,2.40641 0.74539,1.40374 0.74539,3.27541 h -4.23511 q -0.1694,-2.30616 -1.59242,-3.24199 -1.423,-0.96924 -3.62525,-0.96924 -0.74539,0 -1.52464,0.16711 -0.77927,0.13369 -1.423,0.50133 -0.64374,0.33422 -1.08419,0.93583 -0.40658,0.6016 -0.40658,1.50401 0,1.27006 0.77926,2.00534 0.81315,0.70188 2.10063,1.06953 0.13552,0.0334 1.0503,0.30079 0.94867,0.23397 2.10062,0.53477 1.15196,0.3008 2.23615,0.6016 1.11806,0.26739 1.5924,0.40108 1.18584,0.36764 2.06674,1.00266 0.8809,0.63503 1.45687,1.4706 0.60987,0.80213 0.88091,1.73796 0.30493,0.93583 0.30493,1.87166 0,2.00535 -0.84702,3.44251 -0.81315,1.40375 -2.16839,2.30615 -1.35524,0.9024 -3.08316,1.30348 -1.72792,0.43449 -3.52362,0.43449 -2.06673,0 -3.89631,-0.50133 -1.82957,-0.50135 -3.18481,-1.53743 -1.35524,-1.0361 -2.16838,-2.64039 -0.81314,-1.6377 -0.84701,-3.84357 z"
         id="text8"
         style="font-weight:500;font-size:28.2222px;line-height:1.9;font-family:'Helvetica Neue';-inkscape-font-specification:'Helvetica Neue Medium';text-align:center;letter-spacing:-0.079375px;word-spacing:0px;text-anchor:middle;fill:#00ff00;stroke-width:1.19236"
         aria-label="PRO ACCESS" /><g
         id="g15"><path
           style="font-size:74.1219px;line-height:1.2;font-family:'Gothic725 Bd BT';-inkscape-font-specification:'Gothic725 Bd BT';letter-spacing:-0.115815px;word-spacing:0px;fill:#0afff7;stroke:#000000;stroke-width:0.811488"
           d="m 279.07571,265.33263 v -86.94665 h 56.53382 v 13.6493 h -41.3392 v 20.98505 h 38.32486 v 13.52905 h -38.32486 v 38.78325 z"
           id="path15" /><path
           style="font-size:74.1219px;line-height:1.2;font-family:'Gothic725 Bd BT';-inkscape-font-specification:'Gothic725 Bd BT';letter-spacing:-0.115815px;word-spacing:0px;fill:#0afff7;stroke:#000000;stroke-width:0.811488"
           d="m 203.42252,265.33263 v -86.94665 h 59.17902 v 13.40878 h -43.9844 v 21.58634 h 40.60099 v 13.28853 h -40.60099 v 25.13397 h 45.76839 v 13.52903 z"
           id="path14" /><path
           style="font-size:74.1219px;line-height:1.2;font-family:'Gothic725 Bd BT';-inkscape-font-specification:'Gothic725 Bd BT';letter-spacing:-0.115815px;word-spacing:0px;fill:#0afff7;stroke:#000000;stroke-width:0.811488"
           d="m 138.28869,218.55221 h 16.17889 q 8.18171,0 12.42636,-3.48749 4.30616,-3.54762 4.30616,-10.22195 0,-6.55406 -3.99858,-9.74091 -3.93706,-3.18685 -12.11878,-3.18685 h -16.79405 z m -15.19462,46.78042 v -86.94665 h 31.61958 q 15.99431,0 24.11452,6.55406 8.1202,6.49395 8.1202,19.30145 0,9.25988 -4.4292,15.63356 -4.36769,6.31355 -13.10305,9.62065 l 21.0387,35.83693 h -17.22466 l -19.1932,-33.85267 h -15.74827 v 33.85267 z"
           id="path13" /><path
           style="font-size:74.1219px;line-height:1.2;font-family:'Gothic725 Bd BT';-inkscape-font-specification:'Gothic725 Bd BT';letter-spacing:-0.115815px;word-spacing:0px;fill:#0afff7;stroke:#000000;stroke-width:0.811488"
           d="m 64.29646,270.624 h 7.812602 q 3.383417,0 4.859823,-1.20258 1.537928,-1.2026 1.537928,-3.84827 0,-0.42089 -0.184557,-1.14245 -0.123066,-0.78167 -0.430627,-1.80387 l -19.808363,-59.9487 h 14.517935 l 10.949971,35.29578 q 0.615163,2.04438 1.107291,4.32929 0.492139,2.22476 0.922745,4.87046 0.307601,-2.40518 0.79973,-4.75021 0.553651,-2.34504 1.230326,-4.44954 L 97.63848,202.67813 h 14.51793 l -19.808369,62.6545 q -3.260372,10.40234 -7.197439,13.6493 -3.937068,3.24699 -11.811203,3.24699 H 64.29646 Z"
           id="path12" /><path
           style="font-size:74.1219px;line-height:1.2;font-family:'Gothic725 Bd BT';-inkscape-font-specification:'Gothic725 Bd BT';letter-spacing:-0.115815px;word-spacing:0px;fill:#0afff7;stroke:#000000;stroke-width:0.811488"
           d="m 9.6819672,234.06552 q 0,10.22192 3.4449288,15.09239 3.506442,4.87045 10.765414,4.87045 7.320495,0 11.319065,-5.23122 4.060092,-5.29137 4.060092,-14.73162 0,-9.5004 -4.060092,-14.73163 -3.99857,-5.23124 -11.319065,-5.23124 -7.197439,0 -10.703901,4.93058 -3.5064418,4.87046 -3.5064418,15.03229 z m 0,31.26711 h -13.59519 v -86.94665 h 13.59519 v 29.94428 q 3.1988598,-3.54762 7.2589728,-5.23123 4.121604,-1.68362 9.35052,-1.68362 12.303342,0 19.808363,8.95924 7.566554,8.8991 7.566554,23.69087 0,14.79174 -7.566554,23.75098 -7.505021,8.89911 -19.808363,8.89911 -5.228916,0 -9.35052,-1.68362 -4.060113,-1.74375 -7.2589728,-5.23122 z"
           id="path11" /><path
           style="font-size:74.1219px;line-height:1.2;font-family:'Gothic725 Bd BT';-inkscape-font-specification:'Gothic725 Bd BT';letter-spacing:-0.115815px;word-spacing:0px;fill:#0afff7;stroke:#000000;stroke-width:0.811488"
           d="m -32.690705,230.99893 q 0,-8.6586 -3.629486,-13.04802 -3.567974,-4.44954 -10.519345,-4.44954 -6.889868,0 -10.765424,4.56981 -3.814023,4.5698 -3.814023,12.92775 0,8.29781 3.814023,12.86762 3.875556,4.56982 10.765424,4.56982 6.951371,0 10.519345,-4.38943 3.629486,-4.44956 3.629486,-13.04801 z m 0,23.75099 q -3.075836,3.18683 -7.135928,4.7502 -3.99858,1.50321 -9.227496,1.50321 -11.934248,0 -19.377757,-8.17754 -7.381996,-8.23768 -7.381996,-21.58635 0,-13.46892 7.320484,-21.64646 7.381997,-8.17757 19.439269,-8.17757 5.167384,0 9.165964,1.56336 3.9986,1.50323 7.19746,4.75019 v -5.05083 h 13.595169 v 52.67307 q 0,6.91485 -0.615163,10.04156 -0.55364,3.12672 -1.907011,5.71228 -2.891278,5.53186 -9.781137,8.59845 -6.828356,3.1267 -16.301921,3.1267 -11.749691,0 -18.639549,-4.93058 -6.828346,-4.87045 -7.443509,-13.6493 h 15.74826 q 0.492129,3.36723 2.829756,4.87046 2.337638,1.50323 7.258973,1.50323 8.243229,0 11.74967,-2.70581 3.506462,-2.64568 3.506462,-8.83898 z"
           id="path10" /><path
           style="font-size:74.1219px;line-height:1.2;font-family:'Gothic725 Bd BT';-inkscape-font-specification:'Gothic725 Bd BT';letter-spacing:-0.115815px;word-spacing:0px;fill:#0afff7;stroke:#000000;stroke-width:0.811488"
           d="m -87.059108,202.67813 v 62.6545 H -100.6543 v -5.77238 q -3.75251,3.48747 -8.30476,5.23122 -4.49071,1.74375 -9.59659,1.74375 -9.84266,0 -15.5637,-5.83253 -5.72106,-5.83251 -5.72106,-16.05446 v -41.9701 h 13.59518 v 39.5048 q 0,6.01292 2.76825,9.19975 2.82976,3.12672 8.18171,3.12672 6.2747,0 10.45784,-4.08878 4.18313,-4.14891 4.18313,-10.46246 v -37.28003 z"
           id="path9" /><path
           style="font-size:74.1219px;line-height:1.2;font-family:'Gothic725 Bd BT';-inkscape-font-specification:'Gothic725 Bd BT';letter-spacing:-0.115815px;word-spacing:0px;fill:#0afff7;stroke:#000000;stroke-width:0.811488"
           d="m -200.72958,218.55221 h 16.17886 q 8.18172,0 12.42637,-3.48749 4.30617,-3.54762 4.30617,-10.22195 0,-6.55406 -3.99858,-9.74091 -3.93707,-3.18685 -12.11877,-3.18685 h -16.79405 z m -15.19462,46.78042 v -86.94665 h 31.61955 q 15.99433,0 24.11454,6.55406 8.12018,6.49395 8.12018,19.30145 0,9.25988 -4.42918,15.63356 -4.36769,6.31355 -13.10306,9.62065 l 21.0387,35.83693 h -17.22467 l -19.19319,-33.85267 h -15.74825 v 33.85267 z"
           id="text3" /></g></g></g></svg>
