<?xml version="1.0" encoding="UTF-8" standalone="no"?>
<!-- Created with Inkscape (http://www.inkscape.org/) -->

<svg
   width="500"
   height="500"
   viewBox="0 0 132.29167 132.29167"
   version="1.1"
   id="svg1"
   inkscape:version="1.4.2 (ebf0e940, 2025-05-08)"
   sodipodi:docname="WebIcon.svg"
   inkscape:export-filename="../logo_sideline.png"
   inkscape:export-xdpi="192"
   inkscape:export-ydpi="192"
   xml:space="preserve"
   xmlns:inkscape="http://www.inkscape.org/namespaces/inkscape"
   xmlns:sodipodi="http://sodipodi.sourceforge.net/DTD/sodipodi-0.dtd"
   xmlns="http://www.w3.org/2000/svg"
   xmlns:svg="http://www.w3.org/2000/svg"><sodipodi:namedview
     id="namedview1"
     pagecolor="#ffffff"
     bordercolor="#000000"
     borderopacity="0.25"
     inkscape:showpageshadow="2"
     inkscape:pageopacity="0.0"
     inkscape:pagecheckerboard="0"
     inkscape:deskcolor="#d1d1d1"
     inkscape:document-units="mm"
     inkscape:zoom="0.90509668"
     inkscape:cx="180.64369"
     inkscape:cy="157.99417"
     inkscape:window-width="1824"
     inkscape:window-height="945"
     inkscape:window-x="0"
     inkscape:window-y="25"
     inkscape:window-maximized="0"
     inkscape:current-layer="layer1"
     showgrid="false"><inkscape:page
       x="0"
       y="0"
       width="132.29167"
       height="132.29167"
       id="page2"
       margin="0"
       bleed="0" /></sodipodi:namedview><defs
     id="defs1" /><g
     inkscape:label="Layer 1"
     inkscape:groupmode="layer"
     id="layer1"><g
       id="g15"
       transform="translate(-116.16862,136.01238)"><rect
         style="fill:#ef6f00;fill-opacity:1;stroke:#000000;stroke-width:0.5;stroke-dasharray:none;stroke-opacity:1"
         id="rect7-7"
         width="128"
         height="128"
         x="118.31445"
         y="-133.86655"
         ry="15.572686" /><path
         style="fill:#00ff00;fill-opacity:1;stroke-width:0.483409"
         d="m 228.29196,-12.41095 c -1.49877,-0.24135 -3.01902,-0.84478 -4.23831,-1.68231 -1.00415,-0.68975 -1.36092,-1.06549 -11.44047,-12.04844 -4.8097,-5.24078 -10.67429,-11.630871 -13.03242,-14.200195 -2.35813,-2.569314 -4.36973,-4.774715 -4.47021,-4.900879 -0.1677,-0.210545 0.29981,-0.711985 5.69111,-6.104251 3.2306,-3.231174 5.90964,-5.874863 5.95343,-5.874863 0.073,0 1.612,1.389275 5.10147,4.605243 0.73863,0.680731 2.8682,2.63819 4.73238,4.349894 1.86416,1.711704 4.42726,4.066228 5.69576,5.232277 1.26851,1.166049 4.72187,4.334679 7.67412,7.041404 2.95227,2.70672 5.87751,5.41186 6.50054,6.0114 1.6728,1.60974 2.5105,2.93449 3.05018,4.82362 0.40632,1.42232 0.40661,3.89982 4.9e-4,5.32083 -0.98525,3.44854 -3.68496,6.16551 -7.08332,7.12859 -0.92731,0.26282 -3.29354,0.43316 -4.13489,0.29768 z m -64.35142,-31.919272 c -8.48393,-0.426402 -16.7205,-3.58279 -23.5807,-9.036516 -1.59584,-1.268666 -4.61875,-4.23542 -5.92866,-5.818509 -5.62276,-6.795439 -8.84566,-14.731555 -9.53907,-23.489127 -0.15789,-1.994014 -0.0639,-6.232744 0.18148,-8.185723 1.66447,-13.247233 9.30103,-24.653723 20.91345,-31.237783 4.64539,-2.63386 9.74312,-4.30094 15.41219,-5.04013 2.56492,-0.33445 7.68702,-0.30203 10.36005,0.0655 7.53739,1.03657 14.47695,3.94713 20.27247,8.50259 5.41877,4.25933 9.91025,10.10385 12.59473,16.38885 2.20713,5.167397 3.28232,10.50677 3.28416,16.309073 0.002,5.620018 -0.92835,10.502512 -2.9835,15.661042 -0.65285,1.638685 -2.18854,4.671434 -3.10306,6.12806 -0.39121,0.623116 -0.71129,1.168911 -0.71129,1.212883 0,0.04395 0.57519,0.6571 1.27819,1.362501 l 1.27819,1.282553 -5.88178,5.880736 -5.88178,5.880735 -1.32024,-1.315751 -1.32024,-1.315752 -1.14276,0.717456 c -1.47167,0.92396 -4.50309,2.458589 -6.1339,3.105225 -5.89178,2.336175 -11.59723,3.266224 -18.04793,2.942009 z m 7.69084,-7.885767 c 6.01611,-1.030767 11.03151,-3.199733 15.668,-6.775808 1.40062,-1.080294 4.82391,-4.503581 5.9042,-5.904209 3.6276,-4.703277 5.89132,-10.006805 6.82413,-15.987735 0.28623,-1.835288 0.39026,-6.091963 0.19903,-8.144333 -0.39633,-4.253674 -1.51852,-8.139535 -3.49036,-12.086266 -4.52409,-9.05513 -12.87251,-15.61181 -22.74899,-17.86664 -7.95793,-1.81681 -16.27907,-0.73257 -23.51157,3.06354 -3.09641,1.62521 -5.48234,3.40258 -8.13457,6.05974 -2.93119,2.93666 -4.78178,5.51429 -6.52262,9.08519 -1.12235,2.302252 -1.712,3.869051 -2.30276,6.118919 -2.80287,10.674407 -0.478,21.646021 6.41398,30.2692 1.12295,1.405014 3.49401,3.763727 5.03562,5.009387 4.17146,3.370665 9.38619,5.823027 14.64313,6.886337 2.60287,0.526475 3.89754,0.6297 7.29041,0.581276 2.48032,-0.03535 3.54182,-0.104618 4.73237,-0.308598 z m -20.97592,-8.673678 c -5.00934,-3.031439 -9.44159,-8.353783 -11.70806,-14.059295 -2.03428,-5.121001 -2.57266,-11.266259 -1.46679,-16.742504 1.00565,-4.979939 3.20941,-9.493594 6.49449,-13.301804 1.33427,-1.54673 2.32657,-2.53355 3.45581,-3.43673 0.66781,-0.53411 0.80577,-0.59214 1.40692,-0.59171 1.48104,9.4e-4 2.36268,1.2504 1.87322,2.65447 -0.075,0.21499 -0.49223,0.69838 -0.92729,1.07421 -4.2199,3.6453 -7.27073,8.7081 -8.38897,13.921318 -0.70811,3.301191 -0.73213,7.461684 -0.0619,10.724149 1.36021,6.62114 5.3617,12.481882 11.08373,16.233686 1.39303,0.913365 1.67204,1.285798 1.67533,2.236289 0.003,0.994006 -0.73324,1.752946 -1.79622,1.850503 -0.55934,0.05134 -0.71275,-0.0019 -1.64027,-0.562582 z"
         id="path7" /></g></g></svg>
