<?xml version="1.0" encoding="UTF-8" standalone="no"?>
<!-- Created with Inkscape (http://www.inkscape.org/) -->

<svg
   width="500"
   height="500"
   viewBox="0 0 132.29167 132.29167"
   version="1.1"
   id="svg1"
   inkscape:version="1.4.2 (ebf0e940, 2025-05-08)"
   sodipodi:docname="menu_home.svg"
   inkscape:export-filename="../RugbyREF (Website)/rugbyref-site/public/images/menu_about_us.svg"
   inkscape:export-xdpi="192"
   inkscape:export-ydpi="192"
   xml:space="preserve"
   xmlns:inkscape="http://www.inkscape.org/namespaces/inkscape"
   xmlns:sodipodi="http://sodipodi.sourceforge.net/DTD/sodipodi-0.dtd"
   xmlns="http://www.w3.org/2000/svg"
   xmlns:svg="http://www.w3.org/2000/svg"><sodipodi:namedview
     id="namedview1"
     pagecolor="#ffffff"
     bordercolor="#000000"
     borderopacity="0.25"
     inkscape:showpageshadow="2"
     inkscape:pageopacity="0.0"
     inkscape:pagecheckerboard="0"
     inkscape:deskcolor="#d1d1d1"
     inkscape:document-units="mm"
     inkscape:zoom="1.086116"
     inkscape:cx="84.245145"
     inkscape:cy="174.93527"
     inkscape:window-width="1824"
     inkscape:window-height="945"
     inkscape:window-x="0"
     inkscape:window-y="25"
     inkscape:window-maximized="0"
     inkscape:current-layer="layer1"
     showgrid="false"
     showguides="true"><inkscape:page
       x="0"
       y="0"
       width="132.29167"
       height="132.29167"
       id="page2"
       margin="0"
       bleed="0" /></sodipodi:namedview><defs
     id="defs1" /><g
     inkscape:label="Layer 1"
     inkscape:groupmode="layer"
     id="layer1"><g
       id="g1"><rect
         style="fill:#0dffff;fill-opacity:1;stroke:none;stroke-width:0.507812;stroke-dasharray:none;stroke-opacity:1"
         id="rect7-87"
         width="130"
         height="130"
         x="1.1458334"
         y="1.1458334"
         ry="14.369071" /><rect
         style="fill:#00ff00;fill-opacity:1;stroke:#000000;stroke-width:1.02118;stroke-dasharray:none;stroke-opacity:1"
         id="rect7-8-3"
         width="116.97882"
         height="116.97882"
         x="7.656424"
         y="7.656424"
         ry="9.4198322" /><path
         id="rect1"
         style="opacity:1;fill:#151339;fill-opacity:1;stroke-width:0.860714;stroke-dasharray:none"
         d="m 66.254727,16.145609 c -0.878383,-0.0019 -1.757508,0.298725 -2.431901,0.902094 l -46.66249,41.748443 c -1.348776,1.206739 -1.353127,3.15436 -0.01,4.366823 l 4.597162,4.148817 42.075148,-37.643942 c 1.348787,-1.206741 3.516187,-1.201762 4.859673,0.01065 l 41.861211,37.778414 4.58785,-4.104499 c 1.34877,-1.206741 1.35333,-3.154362 0.009,-4.366826 L 98.125284,43.629155 c 0.0484,-0.117353 0.0749,-0.24561 0.0749,-0.380499 V 22.849423 c 0,-0.557665 -0.45537,-1.006514 -1.021135,-1.006514 H 85.441218 c -0.565763,0 -1.021135,0.448849 -1.021135,1.006514 v 8.41122 L 68.682499,17.057891 c -0.671744,-0.606232 -1.549377,-0.910414 -2.427772,-0.912282 z m 0,16.760806 c -0.878383,-0.0019 -1.757508,0.298723 -2.431901,0.902094 L 54.422321,42.21922 40.570385,54.612183 28.645481,65.281439 v 47.961751 c 0,1.60811 1.313555,2.90287 2.945052,2.90288 H 57.188574 V 84.92375 c 0,-0.870299 0.710774,-1.570902 1.593708,-1.570897 h 14.72682 c 0.882934,-2e-6 1.593708,0.700606 1.593708,1.570897 v 31.22232 h 25.59856 c 1.63149,-10e-6 2.94454,-1.29476 2.94454,-2.90288 V 65.372617 L 91.722547,54.612183 77.990503,42.21922 68.682499,33.819207 c -0.671744,-0.606232 -1.549388,-0.910922 -2.427772,-0.912792 z" /></g></g></svg>
