<?xml version="1.0" encoding="UTF-8" standalone="no"?>
<!-- Created with Inkscape (http://www.inkscape.org/) -->

<svg
   width="500"
   height="500"
   viewBox="0 0 132.29167 132.29167"
   version="1.1"
   id="svg1"
   inkscape:version="1.4.2 (ebf0e940, 2025-05-08)"
   sodipodi:docname="WebIcon.svg"
   inkscape:export-filename="../RugbyREF (Website)/rugbyref-site/public/images/menu_about_us.svg"
   inkscape:export-xdpi="192"
   inkscape:export-ydpi="192"
   xml:space="preserve"
   xmlns:inkscape="http://www.inkscape.org/namespaces/inkscape"
   xmlns:sodipodi="http://sodipodi.sourceforge.net/DTD/sodipodi-0.dtd"
   xmlns="http://www.w3.org/2000/svg"
   xmlns:svg="http://www.w3.org/2000/svg"><sodipodi:namedview
     id="namedview1"
     pagecolor="#ffffff"
     bordercolor="#000000"
     borderopacity="0.25"
     inkscape:showpageshadow="2"
     inkscape:pageopacity="0.0"
     inkscape:pagecheckerboard="0"
     inkscape:deskcolor="#d1d1d1"
     inkscape:document-units="mm"
     inkscape:zoom="0.90509668"
     inkscape:cx="180.64369"
     inkscape:cy="157.99417"
     inkscape:window-width="1824"
     inkscape:window-height="945"
     inkscape:window-x="0"
     inkscape:window-y="25"
     inkscape:window-maximized="0"
     inkscape:current-layer="layer1"
     showgrid="false"><inkscape:page
       x="0"
       y="0"
       width="132.29167"
       height="132.29167"
       id="page2"
       margin="0"
       bleed="0" /></sodipodi:namedview><defs
     id="defs1" /><g
     inkscape:label="Layer 1"
     inkscape:groupmode="layer"
     id="layer1"><g
       id="g12"><rect
         style="fill:#00ff00;fill-opacity:1;stroke:#000000;stroke-width:0.5;stroke-dasharray:none;stroke-opacity:1"
         id="rect7"
         width="128"
         height="128"
         x="2.1458349"
         y="2.1458333"
         ry="15.572686" /><path
         style="fill:#151339;fill-opacity:1;stroke-width:0.951935"
         d="m 27.412996,121.81946 c -1.268684,-0.33768 -2.892225,-2.19006 -3.244371,-3.70167 -0.165396,-0.70996 -0.24713,-8.13155 -0.247994,-22.517075 l -8.72e-4,-21.458058 20.980506,-20.61335 c 11.539288,-11.337343 21.096036,-20.61335 21.237219,-20.61335 0.141192,0 9.697939,9.276007 21.237228,20.61335 l 20.980518,20.61335 -8.8e-4,21.458058 c -8.6e-4,14.385525 -0.0826,21.807115 -0.24799,22.517075 -0.38033,1.63258 -1.95685,3.34777 -3.42118,3.72209 -0.80399,0.20552 -5.77501,0.30596 -15.142782,0.30596 H 75.595703 V 105.37227 88.598702 h -9.458629 -9.458612 v 16.773568 16.77357 l -14.130253,-0.0294 c -8.21361,-0.0172 -14.551046,-0.14145 -15.135213,-0.29693 z M 13.009585,75.758103 C 12.367113,75.559165 7.3357486,68.244968 7.1811293,67.28516 7.1078002,66.829875 7.1526176,66.12883 7.28066,65.727283 7.5781101,64.79479 60.336651,12.331282 62.046984,11.267224 c 2.262046,-1.407291 5.508998,-1.499091 7.927181,-0.2241 0.525878,0.277259 5.146233,4.679156 10.267449,9.781976 l 9.311316,9.277841 0.06086,-8.989285 c 0.06792,-10.030988 0.07464,-10.074991 1.637178,-10.624937 0.54676,-0.192444 3.433214,-0.265058 8.274752,-0.208178 l 7.43509,0.0873 0.63935,0.762323 0.63933,0.762334 0.0624,18.421569 0.0624,18.42158 8.20165,8.141788 c 5.01661,4.979989 8.29073,8.421024 8.43101,8.860836 0.43306,1.357617 0.0311,2.277266 -2.68483,6.142465 -2.22519,3.166788 -2.77356,3.796022 -3.43773,3.944533 -0.43462,0.09718 -1.00913,0.09388 -1.27671,-0.0074 C 117.33016,75.716663 105.67402,64.259014 91.695191,50.356444 77.716366,36.453873 66.215208,25.079048 66.137065,25.079048 c -0.07813,0 -11.56985,11.36542 -25.537113,25.256495 C 26.63269,64.22662 15.028983,75.672516 14.813948,75.770871 c -0.424804,0.194302 -1.152107,0.189121 -1.80438,-0.01286 z"
         id="path6" /></g></g></svg>
