<?xml version="1.0" encoding="UTF-8" standalone="no"?>
<!-- Created with Inkscape (http://www.inkscape.org/) -->

<svg
   width="1024"
   height="1024"
   viewBox="0 0 270.93333 270.93333"
   version="1.1"
   id="svg1"
   xml:space="preserve"
   inkscape:version="1.4.2 (ebf0e940, 2025-05-08)"
   sodipodi:docname="menu_app_ref.svg"
   xmlns:inkscape="http://www.inkscape.org/namespaces/inkscape"
   xmlns:sodipodi="http://sodipodi.sourceforge.net/DTD/sodipodi-0.dtd"
   xmlns:xlink="http://www.w3.org/1999/xlink"
   xmlns="http://www.w3.org/2000/svg"
   xmlns:svg="http://www.w3.org/2000/svg"><sodipodi:namedview
     id="namedview1"
     pagecolor="#ffffff"
     bordercolor="#000000"
     borderopacity="0.25"
     inkscape:showpageshadow="2"
     inkscape:pageopacity="0.0"
     inkscape:pagecheckerboard="0"
     inkscape:deskcolor="#d1d1d1"
     inkscape:document-units="mm"
     inkscape:zoom="0.70911897"
     inkscape:cx="451.96929"
     inkscape:cy="527.41503"
     inkscape:window-width="1880"
     inkscape:window-height="945"
     inkscape:window-x="17"
     inkscape:window-y="25"
     inkscape:window-maximized="0"
     inkscape:current-layer="layer1" /><defs
     id="defs1"><linearGradient
       id="linearGradient1"
       inkscape:collect="always"><stop
         style="stop-color:#b9562c;stop-opacity:1;"
         offset="0.08695652"
         id="stop1" /><stop
         style="stop-color:#1f1646;stop-opacity:1;"
         offset="1"
         id="stop2" /></linearGradient><linearGradient
       id="linearGradient8"
       x1="76.323006"
       y1="739.28235"
       x2="851.82892"
       y2="198.82033"
       gradientUnits="userSpaceOnUse"
       href="#linearGradient7"
       gradientTransform="matrix(0.26458333,0,0,0.26458333,2.4483306,8.4400433)" /><linearGradient
       id="linearGradient7"><stop
         style="stop-color:#02fff7;stop-opacity:1;"
         offset="0.17378917"
         id="stop7" /><stop
         style="stop-color:#001bfe;stop-opacity:1;"
         offset="1"
         id="stop8" /></linearGradient><linearGradient
       id="linearGradient10"
       x1="362.74731"
       y1="709.17529"
       x2="868.34106"
       y2="204.61108"
       gradientUnits="userSpaceOnUse"
       href="#linearGradient9"
       gradientTransform="matrix(0.26458333,0,0,0.26458333,2.4483306,8.4400433)" /><linearGradient
       id="linearGradient9"><stop
         style="stop-color:#02fff7;stop-opacity:1;"
         offset="0"
         id="stop9" /><stop
         style="stop-color:#000aff;stop-opacity:1;"
         offset="1"
         id="stop10" /></linearGradient><radialGradient
       inkscape:collect="always"
       xlink:href="#linearGradient1"
       id="radialGradient2"
       cx="135.46667"
       cy="135.46667"
       fx="135.46667"
       fy="135.46667"
       r="135"
       gradientUnits="userSpaceOnUse" /></defs><g
     inkscape:label="Layer 1"
     inkscape:groupmode="layer"
     id="layer1"><rect
       style="opacity:1;fill:url(#radialGradient2);stroke-width:1;stroke:#00f8ff;stroke-opacity:1;stroke-dasharray:none"
       id="rect1"
       width="270"
       height="270"
       x="0.46666667"
       y="0.46666667"
       ry="22.162498" /><g
       id="g2"
       transform="matrix(1.059974,0,0,1.0313504,-9.9520626,-14.650765)"><path
         id="path1-4"
         style="fill:#000000;fill-opacity:1;stroke:#ffffff;stroke-width:0;stroke-dasharray:none"
         d="m 138.34701,62.608829 c -19.47682,-0.07604 -31.41589,13.804968 -57.632139,52.521861 l -62.300073,91.45798 0.33693,0.12402 8.94519,11.6887 52.37923,19.65616 -0.03721,-0.0615 0.101285,0.12971 c 10.768086,-16.90762 46.464847,-53.60758 81.635847,-45.00552 28.85008,6.9298 50.2312,-14.53492 58.52717,-34.63354 8.7252,-22.81283 6.65994,-39.6912 2.7187,-53.01899 6.06935,-5.05933 10.37012,-12.290016 9.03355,-22.030178 -0.67809,-4.519451 -2.46578,-7.819297 -4.15427,-10.760067 -1.51793,-2.545439 -4.02168,-3.540175 -6.67711,-4.314465 -15.15396,-10.424694 -25.45322,-1.992442 -33.9881,8.551931 l -21.14806,-8.12715 c -10.97004,-3.952412 -20.11958,-6.149192 -27.74094,-6.178952 z m -19.9254,17.525029 c 15.23043,6.085567 28.31631,11.675639 44.88615,17.331758 -7.18323,8.377044 -13.94166,15.999244 -20.08715,24.376294 L 97.694713,104.74062 C 104.08006,94.522209 111.06975,86.7824 118.42161,80.133858 Z m 105.57443,0.323495 c 2.43145,-1.27e-4 3.41861,1.954554 3.49695,4.157369 -4e-5,3.377377 -1.14375,5.3321 -3.8101,5.331973 -2.66635,1.08e-4 -4.20178,-1.562902 -4.20181,-4.940266 3e-5,-3.377369 1.84862,-4.549185 4.51496,-4.549076 z" /><path
         id="path126"
         style="fill:url(#linearGradient8);stroke:#ffffff;stroke-width:0;stroke-dasharray:none"
         d="m 138.69789,63.004153 c -19.09041,-0.07464 -31.40632,14.24115 -57.102454,52.241257 L 20.531464,205.00996 70.442114,223.71682 173.0312,97.432027 c 12.25742,-15.848742 23.43246,-15.097352 30.80587,-13.742831 6.36594,-12.048511 13.12549,-15.244955 16.07602,-15.841411 -14.5288,-8.724477 -23.73163,-0.975508 -32.45176,9.812322 l -22.03328,-8.514726 c -10.75241,-3.879233 -19.25999,-6.11202 -26.73016,-6.141228 z m -21.14186,15.048696 c 15.61903,5.511776 31.05471,12.458348 47.29582,18.009753 -7.04071,8.221958 -15.35342,17.932008 -21.37699,26.153958 L 95.552207,103.97168 C 101.81088,93.942446 109.73602,84.194034 117.55603,78.052849 Z" /><path
         id="path127"
         style="fill:url(#linearGradient10);fill-opacity:1;stroke:#ffffff;stroke-width:0;stroke-dasharray:none"
         d="m 222.33516,69.717955 c -6.73946,-0.488344 -14.34304,10.616758 -17.54828,16.713192 -17.41974,-4.651552 -25.98623,6.264857 -36.56831,20.202903 l -95.648939,117.8481 8.065659,10.84482 c 10.479209,-16.45404 46.59031,-50.49359 79.67472,-43.34154 29.82497,7.60372 49.76588,-11.79497 59.66819,-35.39319 8.49114,-22.20083 6.17638,-36.94981 2.03605,-51.36792 5.69405,-4.74648 10.0568,-10.969036 9.60872,-19.833935 -1.26203,0.66989 -2.63973,1.211736 -4.11241,1.59835 -0.74979,2.024793 -2.36126,3.436046 -4.24367,3.435967 -2.59481,1.08e-4 -4.69839,-2.664294 -4.69842,-5.951059 3e-5,-3.286762 2.10361,-5.951164 4.69842,-5.951056 1.95152,-8.2e-5 3.62366,1.507567 4.33359,3.653007 1.11023,-0.481039 2.12924,-1.073324 3.04684,-1.752348 -0.63837,-2.076289 -1.39152,-3.751657 -2.05569,-5.737636 -1.8596,-3.354014 -4.00998,-4.804872 -6.25647,-4.967655 z" /><g
         id="g13"
         transform="matrix(0.26458333,0,0,0.26458333,2.5590698,8.8830001)"><path
           style="opacity:1;fill:#000000;fill-opacity:1;stroke:#ffffff;stroke-width:0"
           id="path128"
           d="m 792.07031,169.20508 c -31.90399,0.60534 -57.64298,16.73752 -62.14062,40.00195 -0.51213,2.64901 -0.73531,5.34051 -0.72461,8.05469 3.4117,-2.24322 6.91202,-4.1814 10.48828,-5.85938 4.85127,-19.03613 26.49323,-32.0944 53.11914,-32.59961 9.16219,-0.17384 18.91535,1.14041 28.77734,4.20704 31.84169,9.90129 53.08672,28.91638 57.38282,49.93554 -2.56766,-2.25081 -5.01692,-4.26398 -7.07618,-4.30469 -7.26813,-0.14369 -10.1349,16.20542 -5.71289,22.23829 3.15396,2.70314 6.11767,5.4936 8.9961,8.31836 -7.8658,14.91953 -25.2259,26.3357 -46.69141,28.02343 -0.83369,2.77438 -1.80878,5.45652 -2.91211,8.0625 25.47263,0.45572 46.93691,-10.79836 58.41406,-26.82812 26.6163,29.95897 40.1286,64.16756 48.80079,88.95703 14.97072,67.39614 -11.86209,74.67215 -17.46485,137.89648 -2.32696,26.54904 0.0857,48.46241 17.8086,57.8711 -8.22523,-48.6165 2.88413,-77.73802 13.88476,-116.40039 18.5999,-60.48697 -8.22462,-113.97148 -22.34765,-143.83594 -9.71879,-17.52278 -16.70913,-29.51946 -32.00586,-46.11524 3.77009,-29.97283 -22.87899,-58.96185 -67.19532,-72.74218 -11.44694,-3.55947 -22.76573,-5.08265 -33.40039,-4.88086 z"
           transform="matrix(1.0196098,0,0,1.0217994,-14.299603,-6.1994512)"
           href="#path4" /><path
           id="path4"
           style="opacity:1;fill:#0000ff;fill-opacity:1;stroke:#ffffff;stroke-width:0"
           d="m 792.07031,169.20508 c -31.90399,0.60534 -57.64298,16.73752 -62.14062,40.00195 -0.51213,2.64901 -0.73531,5.34051 -0.72461,8.05469 3.4117,-2.24322 6.91202,-4.18139 10.48828,-5.85937 4.85127,-19.03613 26.49323,-32.09441 53.11914,-32.59962 9.16219,-0.17384 18.91535,1.14041 28.77734,4.20704 31.84169,9.90129 53.08671,28.91638 57.38281,49.93554 -2.56766,-2.25081 -5.01691,-4.26397 -7.07617,-4.30468 -7.26813,-0.1437 -10.13489,16.20541 -5.71288,22.23828 3.15396,2.70314 6.11766,5.4936 8.99609,8.31836 -7.8658,14.91953 -25.2259,26.3357 -46.69141,28.02343 -0.83369,2.77438 -1.80877,5.45652 -2.9121,8.0625 25.47263,0.45572 46.93691,-10.79836 58.41406,-26.82812 26.6163,29.95897 40.12859,64.16756 48.80078,88.95703 14.97072,67.39614 -11.86209,74.67216 -17.46485,137.89649 -2.32696,26.54904 0.0857,48.46239 17.80858,57.87108 -8.22523,-48.6165 2.88414,-77.73802 13.88477,-116.40039 18.5999,-60.48697 -8.22462,-113.97147 -22.34765,-143.83593 -9.71878,-17.52278 -16.70912,-29.51946 -32.00585,-46.11523 3.77009,-29.97284 -22.87898,-58.96186 -67.19531,-72.74219 -11.44694,-3.55947 -22.76574,-5.08265 -33.4004,-4.88086 z" /></g></g></g></svg>
