<?xml version="1.0" encoding="UTF-8" standalone="no"?>
<!-- Created with Inkscape (http://www.inkscape.org/) -->

<svg
   width="204mm"
   height="30mm"
   viewBox="0 0 204 30"
   version="1.1"
   id="svg1"
   inkscape:version="1.4.2 (ebf0e940, 2025-05-08)"
   sodipodi:docname="referee_caption.svg"
   inkscape:export-filename="../logo_sideline.png"
   inkscape:export-xdpi="192"
   inkscape:export-ydpi="192"
   xml:space="preserve"
   xmlns:inkscape="http://www.inkscape.org/namespaces/inkscape"
   xmlns:sodipodi="http://sodipodi.sourceforge.net/DTD/sodipodi-0.dtd"
   xmlns:xlink="http://www.w3.org/1999/xlink"
   xmlns="http://www.w3.org/2000/svg"
   xmlns:svg="http://www.w3.org/2000/svg"><sodipodi:namedview
     id="namedview1"
     pagecolor="#ffffff"
     bordercolor="#000000"
     borderopacity="0.25"
     inkscape:showpageshadow="2"
     inkscape:pageopacity="0.0"
     inkscape:pagecheckerboard="0"
     inkscape:deskcolor="#d1d1d1"
     inkscape:document-units="mm"
     inkscape:zoom="1.28"
     inkscape:cx="358.20313"
     inkscape:cy="62.5"
     inkscape:window-width="1824"
     inkscape:window-height="945"
     inkscape:window-x="0"
     inkscape:window-y="25"
     inkscape:window-maximized="0"
     inkscape:current-layer="layer1"
     showgrid="false" /><defs
     id="defs1"><linearGradient
       id="linearGradient54"
       inkscape:collect="always"><stop
         style="stop-color:#39ff14;stop-opacity:0.25;"
         offset="0"
         id="stop54" /><stop
         style="stop-color:#39ff14;stop-opacity:1;"
         offset="0.66096866"
         id="stop55" /></linearGradient><linearGradient
       inkscape:collect="always"
       xlink:href="#linearGradient54"
       id="linearGradient55"
       x1="0.1839681"
       y1="108.8546"
       x2="200.18416"
       y2="108.8546"
       gradientUnits="userSpaceOnUse" /></defs><g
     inkscape:label="Layer 1"
     inkscape:groupmode="layer"
     id="layer1"><g
       id="g55"
       transform="translate(2.0462823,-83.312923)"><path
         id="rect3"
         style="fill:url(#linearGradient55);fill-opacity:1;stroke:none;stroke-width:1.01914"
         d="m 1.0841715,105.75479 c -0.49860126,0 -0.9002034,0.40108 -0.9002034,0.89968 v 4.40025 c 0,0.4986 0.40160214,0.89969 0.9002034,0.89969 H 199.28396 c 0.4986,0 0.9002,-0.40109 0.9002,-0.89969 v -4.40025 c 0,-0.47718 -0.36746,-0.86515 -0.83612,-0.89762 -0.0858,0.11526 -0.17665,0.22545 -0.27182,0.33021 -0.96569,1.06316 -2.48087,1.59474 -4.54546,1.59474 -0.5994,0 -1.21525,-0.0676 -1.84795,-0.20257 -0.61604,-0.135 -1.18195,-0.3546 -1.69809,-0.65836 -0.45682,-0.27781 -0.84413,-0.63302 -1.16168,-1.06608 H 61.950224 c -0.09333,0.13778 -0.191694,0.2697 -0.295589,0.39532 -0.339852,0.45057 -0.769055,0.80188 -1.287777,1.0542 -0.518721,0.27033 -1.181013,0.40566 -1.985925,0.40566 -0.715478,0 -1.42166,-0.0541 -2.119251,-0.16226 v -1.69292 H 39.468909 c -0.128341,0.14833 -0.266587,0.28766 -0.414962,0.41754 -1.082243,0.97877 -2.647384,1.46813 -4.695321,1.46813 -0.649345,0 -1.30701,-0.0676 -1.973006,-0.20257 -0.649345,-0.135 -1.248894,-0.36305 -1.79834,-0.68368 -0.439271,-0.26436 -0.822155,-0.59743 -1.14825,-0.99942 z m 192.1174685,0 c 0.11599,0.0314 0.23457,0.0577 0.35554,0.0791 0.38294,0.0844 0.74899,0.12661 1.09864,0.12661 0.51466,0 0.97097,-0.0686 1.36839,-0.20567 z" /><g
         id="text2"
         style="font-weight:500;font-size:21.8052px;line-height:1.9;font-family:'Helvetica Neue';-inkscape-font-specification:'Helvetica Neue Medium';text-align:center;letter-spacing:-0.223009px;word-spacing:0px;text-anchor:middle;fill:#00ffff;fill-opacity:1;stroke-width:2.82922"
         aria-label="RugbyREF Ranking"
         transform="matrix(1.071311,0,0,1.071311,-0.0131315,-6.1072303)"><path
           d="M 0.18414412,85.642215 H 7.6197175 q 2.5730135,0 3.8595205,1.112065 1.286507,1.112065 1.286507,3.096339 0,1.112065 -0.327078,1.853442 -0.327078,0.719571 -0.763182,1.177481 -0.436104,0.436104 -0.872208,0.63235 -0.414299,0.196247 -0.610546,0.261663 v 0.04361 q 0.348883,0.04361 0.741377,0.218052 0.414299,0.174442 0.763182,0.566935 0.348883,0.370689 0.566935,0.981234 0.239857,0.610546 0.239857,1.526365 0,1.373727 0.196247,2.507598 0.218052,1.112061 0.654156,1.591781 h -2.921897 q -0.305272,-0.50152 -0.370688,-1.11207 -0.04361,-0.610543 -0.04361,-1.177478 0,-1.068455 -0.1308316,-1.831637 Q 9.7566272,96.304958 9.407744,95.803438 9.0588608,95.280114 8.4483151,95.040256 7.8595747,94.800399 6.9219511,94.800399 H 2.9097942 v 6.410731 H 0.18414412 Z m 2.72565008,7.08669 h 4.4700661 q 1.308312,0 1.9842733,-0.610545 0.6759614,-0.632351 0.6759614,-1.875248 0,-0.741376 -0.2180522,-1.199286 Q 9.6039908,88.564112 9.2114972,88.302449 8.8408087,88.040787 8.3392891,87.953566 7.8595747,87.866345 7.3362499,87.866345 H 2.9097942 Z m 21.9528898,8.482225 h -2.442183 v -1.569976 h -0.04361 q -0.457909,0.850406 -1.373728,1.373726 -0.894013,0.50152 -1.831636,0.50152 -2.224131,0 -3.22717,-1.09026 -0.981234,-1.112064 -0.981234,-3.336195 V 89.93784 h 2.485793 v 6.912248 q 0,1.482754 0.566935,2.093299 0.566935,0.610546 1.59178,0.610546 0.784987,0 1.308312,-0.239857 0.523324,-0.239857 0.850402,-0.632351 0.327078,-0.414299 0.45791,-0.981234 0.152636,-0.566935 0.152636,-1.221091 v -6.54156 h 2.485793 z m 12.816489,-0.58874 q 0,2.55121 -1.439143,3.7941 -1.417338,1.2647 -4.099378,1.2647 -0.850403,0 -1.722611,-0.17444 -0.850403,-0.17444 -1.569974,-0.58874 -0.697767,-0.4143 -1.177481,-1.09026 -0.479714,-0.67596 -0.566935,-1.65719 h 2.485793 q 0.109026,0.52332 0.370688,0.8504 0.261662,0.32708 0.610546,0.50152 0.370688,0.19625 0.806792,0.23986 0.436104,0.0654 0.915818,0.0654 1.504559,0 2.202326,-0.74137 0.697766,-0.74138 0.697766,-2.13691 v -1.722615 h -0.04361 q -0.523325,0.937625 -1.439143,1.460945 -0.894014,0.52333 -1.940663,0.52333 -1.351923,0 -2.311352,-0.45791 -0.937623,-0.47972 -1.569974,-1.286508 -0.610546,-0.828597 -0.894013,-1.897052 -0.283468,-1.068455 -0.283468,-2.289546 0,-1.133871 0.348883,-2.158715 0.348884,-1.024845 1.00304,-1.788027 0.654156,-0.784987 1.591779,-1.242896 0.959429,-0.457909 2.158715,-0.457909 1.068455,0 1.962468,0.457909 0.894013,0.436104 1.373728,1.395533 h 0.04361 V 89.93784 h 2.485793 z m -5.516716,-1.37373 q 0.828598,0 1.395533,-0.327078 0.588741,-0.348883 0.937624,-0.894013 0.370688,-0.566935 0.523325,-1.264702 0.174441,-0.719571 0.174441,-1.439143 0,-0.719572 -0.174441,-1.395533 -0.174442,-0.675961 -0.54513,-1.199286 -0.348884,-0.523325 -0.937624,-0.828597 -0.566935,-0.305273 -1.373728,-0.305273 -0.828597,0 -1.395533,0.348883 -0.566935,0.348883 -0.915818,0.915818 -0.348883,0.54513 -0.50152,1.264702 -0.152636,0.697766 -0.152636,1.395533 0,0.697766 0.174442,1.373728 0.174441,0.654156 0.523324,1.17748 0.370689,0.523325 0.915819,0.850403 0.566935,0.327078 1.351922,0.327078 z m 7.866729,-13.606445 h 2.485793 v 5.756573 h 0.04361 q 0.261663,-0.414299 0.632351,-0.741377 0.370689,-0.327078 0.806793,-0.54513 0.457909,-0.239857 0.937623,-0.348883 0.50152,-0.130831 0.981234,-0.130831 1.330117,0 2.311351,0.479714 1.00304,0.457909 1.657196,1.286507 0.654156,0.806792 0.981234,1.897052 0.327078,1.09026 0.327078,2.333157 0,1.13387 -0.305273,2.202325 -0.283468,1.068455 -0.894013,1.897053 -0.588741,0.806795 -1.504559,1.308315 -0.915819,0.47971 -2.158715,0.47971 -0.566935,0 -1.155676,-0.0872 -0.566935,-0.0654 -1.09026,-0.28347 -0.523324,-0.21805 -0.959428,-0.56693 -0.414299,-0.34889 -0.697767,-0.915821 h -0.04361 v 1.548171 h -2.354962 z m 8.67847,9.943171 q 0,-0.763182 -0.196247,-1.482753 -0.196247,-0.719572 -0.58874,-1.264702 -0.392494,-0.566935 -0.981234,-0.894013 -0.588741,-0.348883 -1.351923,-0.348883 -1.569974,0 -2.376767,1.09026 -0.784987,1.09026 -0.784987,2.900091 0,0.850403 0.196247,1.59178 0.218052,0.719572 0.632351,1.242897 0.414299,0.523324 0.981234,0.828597 0.58874,0.305273 1.351922,0.305273 0.850403,0 1.439143,-0.348883 0.588741,-0.348883 0.959429,-0.894013 0.392494,-0.566936 0.54513,-1.264702 0.174442,-0.719572 0.174442,-1.460949 z m 3.11319,-5.647546 h 2.72565 l 2.943702,8.416807 h 0.04361 L 60.39029,89.93784 h 2.594818 l -4.382845,11.88383 q -0.305273,0.76319 -0.610545,1.46095 -0.283468,0.69777 -0.719572,1.22109 -0.414299,0.54513 -1.04665,0.85041 -0.632351,0.32707 -1.613585,0.32707 -0.872208,0 -1.72261,-0.13083 v -2.0933 q 0.305272,0.0436 0.58874,0.0872 0.283468,0.0654 0.58874,0.0654 0.436104,0 0.719572,-0.10903 0.283468,-0.10902 0.457909,-0.32707 0.196247,-0.19625 0.327078,-0.47972 0.130831,-0.28347 0.239857,-0.65415 l 0.283468,-0.87221 z m 12.685648,-4.295625 h 7.435573 q 2.573014,0 3.859521,1.112065 1.286506,1.112065 1.286506,3.096339 0,1.112065 -0.327078,1.853442 -0.327078,0.719571 -0.763182,1.177481 -0.436104,0.436104 -0.872208,0.63235 -0.414298,0.196247 -0.610545,0.261663 v 0.04361 q 0.348883,0.04361 0.741377,0.218052 0.414298,0.174442 0.763182,0.566935 0.348883,0.370689 0.566935,0.981234 0.239857,0.610546 0.239857,1.526365 0,1.373727 0.196247,2.507598 0.218052,1.112061 0.654156,1.591781 h -2.921897 q -0.305273,-0.50152 -0.370688,-1.11207 -0.04361,-0.610543 -0.04361,-1.177478 0,-1.068455 -0.130831,-1.831637 -0.130831,-0.784987 -0.479714,-1.286507 -0.348884,-0.523324 -0.959429,-0.763182 -0.588741,-0.239857 -1.526364,-0.239857 h -4.012157 v 6.410731 h -2.72565 z m 2.72565,7.08669 h 4.470066 q 1.308312,0 1.984273,-0.610545 0.675961,-0.632351 0.675961,-1.875248 0,-0.741376 -0.218052,-1.199286 -0.218052,-0.479714 -0.610545,-0.741377 -0.370689,-0.261662 -0.872208,-0.348883 -0.479715,-0.08722 -1.00304,-0.08722 h -4.426455 z m 12.402211,-7.08669 h 11.207873 v 2.354962 h -8.482223 v 4.077572 h 7.849872 v 2.224131 h -7.849872 v 4.557287 h 8.634859 v 2.354963 H 79.634355 Z m 13.514251,0 h 10.749964 v 2.354962 h -8.024314 v 4.077572 h 7.043084 v 2.224131 h -7.043084 v 6.91225 h -2.72565 z"
           id="path3"
           style="fill:#00ffff;fill-opacity:1" /><path
           style="font-weight:normal;-inkscape-font-specification:'Helvetica Neue';fill:#00ffff;fill-opacity:1"
           d="m 111.73853,85.642215 v 15.568915 h 2.0715 v -6.650588 h 5.05881 q 0.76318,0 1.22109,0.239857 0.45791,0.218052 0.74137,0.610546 0.28347,0.370688 0.4143,0.894013 0.13083,0.50152 0.21805,1.068455 0.10903,0.566935 0.13084,1.155676 0.0218,0.58874 0.0436,1.112065 0.0218,0.501516 0.0872,0.915816 0.0872,0.4143 0.30527,0.65416 h 2.31135 q -0.32708,-0.3925 -0.50152,-0.89401 -0.15264,-0.52333 -0.23986,-1.090265 -0.0872,-0.566935 -0.10902,-1.155676 -0.0218,-0.58874 -0.0654,-1.155675 -0.0654,-0.566935 -0.19624,-1.09026 -0.10903,-0.523325 -0.37069,-0.937624 -0.23986,-0.436104 -0.67596,-0.741377 -0.4143,-0.305273 -1.09026,-0.436104 v -0.04361 q 1.41733,-0.392494 2.04968,-1.460949 0.65416,-1.068454 0.65416,-2.485792 0,-1.897053 -1.2647,-2.987313 -1.2429,-1.09026 -3.46703,-1.09026 z m 6.38893,7.173911 h -4.31743 v -5.429495 h 5.14603 q 1.46094,0 2.1151,0.741377 0.65416,0.741377 0.65416,1.918858 0,0.850402 -0.30528,1.395532 -0.28346,0.523325 -0.78498,0.850403 -0.47972,0.305273 -1.13387,0.414299 -0.65416,0.109026 -1.37373,0.109026 z m 18.00612,8.351394 q -0.47971,0.28347 -1.33011,0.28347 -0.71958,0 -1.15568,-0.3925 -0.4143,-0.4143 -0.4143,-1.330115 -0.76318,0.915815 -1.78803,1.330115 -1.00303,0.3925 -2.18052,0.3925 -0.76318,0 -1.46094,-0.17445 -0.67596,-0.17444 -1.17748,-0.54513 -0.50152,-0.37068 -0.8068,-0.959425 -0.28346,-0.610546 -0.28346,-1.460948 0,-0.959429 0.32707,-1.569975 0.32708,-0.610545 0.85041,-0.981234 0.54513,-0.392494 1.22109,-0.58874 0.69776,-0.196247 1.41734,-0.327078 0.76318,-0.152637 1.43914,-0.218052 0.69777,-0.08722 1.22109,-0.218052 0.52332,-0.152637 0.8286,-0.414299 0.30527,-0.283468 0.30527,-0.806793 0,-0.610545 -0.23986,-0.981234 -0.21805,-0.370688 -0.58874,-0.566935 -0.34888,-0.196247 -0.80679,-0.261662 -0.4361,-0.06542 -0.87221,-0.06542 -1.17748,0 -1.96247,0.457909 -0.78498,0.436104 -0.8504,1.679001 h -1.85344 q 0.0436,-1.04665 0.4361,-1.766221 0.3925,-0.719572 1.04665,-1.155676 0.65416,-0.457909 1.48276,-0.654156 0.8504,-0.196247 1.80983,-0.196247 0.76318,0 1.50456,0.109026 0.76318,0.109026 1.37372,0.457909 0.61055,0.327078 0.98124,0.937624 0.37069,0.610546 0.37069,1.59178 v 5.800183 q 0,0.654156 0.0654,0.959429 0.0872,0.305273 0.52333,0.305273 0.23986,0 0.56693,-0.109026 z m -3.00911,-5.77838 q -0.34889,0.261662 -0.91582,0.392493 -0.56694,0.109026 -1.19929,0.196247 -0.61054,0.06542 -1.2429,0.174442 -0.63235,0.08722 -1.13387,0.305273 -0.50152,0.218052 -0.82859,0.63235 -0.30528,0.392494 -0.30528,1.09026 0,0.45791 0.17445,0.784988 0.19624,0.305272 0.47971,0.501519 0.30527,0.196247 0.69777,0.283468 0.39249,0.08722 0.82859,0.08722 0.91582,0 1.56998,-0.239858 0.65415,-0.261662 1.06845,-0.63235 0.4143,-0.392494 0.61055,-0.828598 0.19625,-0.457909 0.19625,-0.850403 z m 4.50874,-5.4513 v 11.27329 h 1.85344 v -6.36712 q 0,-0.763182 0.19624,-1.395533 0.21806,-0.654156 0.63236,-1.133871 0.41429,-0.479714 1.02484,-0.741376 0.63235,-0.261663 1.48275,-0.261663 1.06846,0 1.679,0.610546 0.61055,0.610545 0.61055,1.657195 v 7.631822 h 1.85344 v -7.41377 q 0,-0.915818 -0.19625,-1.657195 -0.17444,-0.763182 -0.63235,-1.308312 -0.45791,-0.54513 -1.19928,-0.850403 -0.74138,-0.305273 -1.85344,-0.305273 -2.5076,0 -3.66328,2.049689 h -0.0436 V 89.93784 Z m 12.00969,-4.295625 v 15.568915 h 1.85344 v -4.273821 l 1.74441,-1.613585 3.85953,5.887406 h 2.35496 l -4.79715,-7.173913 4.47007,-4.099377 h -2.48579 l -5.14603,4.927975 v -9.2236 z m 12.94731,2.267741 v -2.267741 h -1.85344 v 2.267741 z m -1.85344,2.027884 v 11.27329 h 1.85344 V 89.93784 Z m 4.50873,0 v 11.27329 h 1.85344 v -6.36712 q 0,-0.763182 0.19624,-1.395533 0.21806,-0.654156 0.63235,-1.133871 0.4143,-0.479714 1.02485,-0.741376 0.63235,-0.261663 1.48275,-0.261663 1.06846,0 1.679,0.610546 0.61055,0.610545 0.61055,1.657195 v 7.631822 h 1.85344 v -7.41377 q 0,-0.915818 -0.19625,-1.657195 -0.17444,-0.763182 -0.63235,-1.308312 -0.45791,-0.54513 -1.19928,-0.850403 -0.74138,-0.305273 -1.85344,-0.305273 -2.5076,0 -3.66328,2.049689 h -0.0436 V 89.93784 Z m 21.6258,10.31386 V 89.93784 h -1.74442 v 1.613584 h -0.0218 q -0.50152,-0.937623 -1.39553,-1.395532 -0.89401,-0.479715 -1.96247,-0.479715 -1.46095,0 -2.46398,0.566935 -1.00304,0.54513 -1.61359,1.417338 -0.61055,0.850403 -0.87221,1.918858 -0.26166,1.04665 -0.26166,2.049689 0,1.155676 0.30527,2.202325 0.32708,1.024845 0.95943,1.809832 0.63235,0.763186 1.56998,1.221096 0.93762,0.4579 2.20232,0.4579 1.09026,0 2.04969,-0.47971 0.98123,-0.50152 1.46095,-1.548169 h 0.0436 v 0.741379 q 0,0.93762 -0.19625,1.72261 -0.17444,0.78499 -0.58874,1.33012 -0.4143,0.56693 -1.04665,0.8722 -0.63235,0.32708 -1.54817,0.32708 -0.45791,0 -0.95943,-0.10902 -0.50152,-0.0872 -0.93762,-0.30528 -0.4143,-0.21805 -0.71957,-0.56693 -0.28347,-0.34889 -0.30527,-0.85041 h -1.85345 q 0.0436,0.91582 0.47972,1.54817 0.4361,0.63235 1.09026,1.02485 0.67596,0.39249 1.48275,0.56693 0.8286,0.17445 1.61359,0.17445 2.70384,0 3.96854,-1.37373 1.26471,-1.37373 1.26471,-4.14299 z m -5.18964,-0.545131 q -0.91582,0 -1.52637,-0.370688 -0.61054,-0.392494 -0.98123,-1.003039 -0.37069,-0.632351 -0.52333,-1.395533 -0.15263,-0.763182 -0.15263,-1.526364 0,-0.806793 0.17444,-1.548169 0.19625,-0.741377 0.58874,-1.308312 0.4143,-0.566936 1.04665,-0.894014 0.63235,-0.348883 1.52636,-0.348883 0.87221,0 1.48276,0.348883 0.61054,0.348884 0.98123,0.937624 0.39249,0.566935 0.56694,1.286507 0.17444,0.719571 0.17444,1.460948 0,0.784988 -0.19625,1.569975 -0.17444,0.784987 -0.56693,1.417338 -0.3925,0.610545 -1.04665,1.003039 -0.63235,0.370688 -1.54817,0.370688 z"
           id="path4" /></g><path
         d="m 119.67558,106.83113 v 4.03013 h 2.66982 v -0.45156 h -2.1336 v -3.57857 z m 3.08151,0 v 4.03013 h 0.53622 v -4.03013 z m 2.94605,4.03013 1.43369,-4.03013 h -0.5588 l -1.16275,3.49391 h -0.0113 l -1.15147,-3.49391 h -0.57573 l 1.41675,4.03013 z m 1.78329,-4.03013 v 4.03013 h 2.79965 v -0.45156 h -2.26343 v -1.39417 h 2.09409 v -0.45156 h -2.09409 v -1.28129 h 2.24649 v -0.45155 z m 4.85916,0 v 4.03013 h 0.53622 v -1.72155 h 1.30951 q 0.19756,0 0.31609,0.0621 0.11853,0.0564 0.19191,0.15805 0.0734,0.0959 0.10725,0.23142 0.0339,0.12982 0.0564,0.27658 0.0282,0.14675 0.0339,0.29915 0.006,0.1524 0.0113,0.28787 0.006,0.12982 0.0226,0.23707 0.0226,0.10724 0.079,0.16933 h 0.59831 q -0.0847,-0.1016 -0.12983,-0.23142 -0.0395,-0.13547 -0.0621,-0.28222 -0.0226,-0.14676 -0.0282,-0.29916 -0.006,-0.1524 -0.0169,-0.29916 -0.0169,-0.14675 -0.0508,-0.28222 -0.0282,-0.13546 -0.096,-0.24271 -0.0621,-0.11289 -0.17497,-0.19191 -0.10725,-0.079 -0.28223,-0.11289 v -0.0113 q 0.36689,-0.1016 0.53058,-0.37817 0.16933,-0.27658 0.16933,-0.64347 0,-0.49107 -0.32737,-0.77329 -0.32174,-0.28222 -0.89747,-0.28222 z m 1.65382,1.85702 h -1.1176 v -1.40547 h 1.33209 q 0.37818,0 0.54751,0.19192 0.16933,0.19191 0.16933,0.49671 0,0.22013 -0.079,0.36124 -0.0734,0.13547 -0.2032,0.22013 -0.12418,0.079 -0.29351,0.10725 -0.16933,0.0282 -0.3556,0.0282 z m 4.08058,0.43462 h -1.6764 q 0.0113,-0.16933 0.0734,-0.31609 0.0621,-0.1524 0.16934,-0.26529 0.10724,-0.11288 0.254,-0.17497 0.1524,-0.0677 0.33866,-0.0677 0.18063,0 0.32738,0.0677 0.1524,0.0621 0.25965,0.17497 0.11288,0.10725 0.17497,0.25965 0.0677,0.1524 0.079,0.32173 z m 0.46284,0.8128 h -0.47413 q -0.0621,0.28787 -0.25965,0.42898 -0.19191,0.14111 -0.49671,0.14111 -0.23706,0 -0.41204,-0.079 -0.17498,-0.079 -0.28787,-0.20885 -0.11289,-0.13546 -0.16369,-0.3048 -0.0508,-0.17497 -0.0451,-0.36689 h 2.1844 q 0.0113,-0.26528 -0.0508,-0.55879 -0.0565,-0.29352 -0.21449,-0.54187 -0.1524,-0.24836 -0.41205,-0.4064 -0.254,-0.16369 -0.64346,-0.16369 -0.29916,0 -0.55316,0.11289 -0.24835,0.11289 -0.43462,0.31609 -0.18062,0.2032 -0.28222,0.47978 -0.1016,0.27657 -0.1016,0.6096 0.0113,0.33302 0.0959,0.61524 0.0903,0.28222 0.26529,0.48542 0.17498,0.2032 0.42898,0.31609 0.25964,0.11289 0.6096,0.11289 0.49671,0 0.82409,-0.24836 0.32737,-0.24835 0.42333,-0.73942 z m 0.66005,-1.56915 v 2.49484 h 0.47978 v -2.49484 h 0.56444 v -0.42334 h -0.56444 v -0.4064 q 0,-0.19191 0.0959,-0.25964 0.096,-0.0677 0.27094,-0.0677 0.0621,0 0.13546,0.0113 0.0734,0.006 0.13547,0.0282 v -0.41769 q -0.0677,-0.0226 -0.15805,-0.0339 -0.0847,-0.0113 -0.1524,-0.0113 -0.39511,0 -0.60395,0.18627 -0.2032,0.18062 -0.2032,0.53622 v 0.43462 h -0.49107 v 0.42334 z m 3.42018,0.75635 h -1.6764 q 0.0113,-0.16933 0.0734,-0.31609 0.0621,-0.1524 0.16934,-0.26529 0.10724,-0.11288 0.254,-0.17497 0.1524,-0.0677 0.33866,-0.0677 0.18063,0 0.32738,0.0677 0.1524,0.0621 0.25965,0.17497 0.11288,0.10725 0.17497,0.25965 0.0677,0.1524 0.079,0.32173 z m 0.46284,0.8128 h -0.47413 q -0.0621,0.28787 -0.25965,0.42898 -0.19191,0.14111 -0.49671,0.14111 -0.23706,0 -0.41204,-0.079 -0.17498,-0.079 -0.28787,-0.20885 -0.11289,-0.13546 -0.16369,-0.3048 -0.0508,-0.17497 -0.0451,-0.36689 h 2.1844 q 0.0113,-0.26528 -0.0508,-0.55879 -0.0565,-0.29352 -0.21449,-0.54187 -0.1524,-0.24836 -0.41205,-0.4064 -0.254,-0.16369 -0.64346,-0.16369 -0.29916,0 -0.55316,0.11289 -0.24835,0.11289 -0.43462,0.31609 -0.18062,0.2032 -0.28222,0.47978 -0.1016,0.27657 -0.1016,0.6096 0.0113,0.33302 0.0959,0.61524 0.0903,0.28222 0.26529,0.48542 0.17498,0.2032 0.42898,0.31609 0.25964,0.11289 0.6096,0.11289 0.49671,0 0.82409,-0.24836 0.32737,-0.24835 0.42333,-0.73942 z m 0.44556,-1.99249 v 2.91818 h 0.47978 v -1.29822 q 0,-0.28222 0.0564,-0.49671 0.0565,-0.22014 0.18062,-0.37254 0.12418,-0.1524 0.32738,-0.23142 0.2032,-0.079 0.49107,-0.079 v -0.508 q -0.38947,-0.0113 -0.64347,0.15804 -0.254,0.16934 -0.42898,0.52494 h -0.0113 v -0.61525 z m 3.74192,1.17969 h -1.6764 q 0.0113,-0.16933 0.0734,-0.31609 0.0621,-0.1524 0.16934,-0.26529 0.10724,-0.11288 0.254,-0.17497 0.1524,-0.0677 0.33866,-0.0677 0.18063,0 0.32738,0.0677 0.1524,0.0621 0.25965,0.17497 0.11288,0.10725 0.17497,0.25965 0.0677,0.1524 0.079,0.32173 z m 0.46284,0.8128 h -0.47413 q -0.0621,0.28787 -0.25965,0.42898 -0.19191,0.14111 -0.49671,0.14111 -0.23706,0 -0.41204,-0.079 -0.17498,-0.079 -0.28787,-0.20885 -0.11289,-0.13546 -0.16369,-0.3048 -0.0508,-0.17497 -0.0452,-0.36689 h 2.1844 q 0.0113,-0.26528 -0.0508,-0.55879 -0.0565,-0.29352 -0.21449,-0.54187 -0.1524,-0.24836 -0.41205,-0.4064 -0.254,-0.16369 -0.64346,-0.16369 -0.29916,0 -0.55316,0.11289 -0.24835,0.11289 -0.43462,0.31609 -0.18062,0.2032 -0.28222,0.47978 -0.1016,0.27657 -0.1016,0.6096 0.0113,0.33302 0.096,0.61524 0.0903,0.28222 0.26529,0.48542 0.17498,0.2032 0.42898,0.31609 0.25964,0.11289 0.6096,0.11289 0.49671,0 0.82409,-0.24836 0.32737,-0.24835 0.42333,-0.73942 z m 2.48885,-0.8128 h -1.6764 q 0.0113,-0.16933 0.0734,-0.31609 0.0621,-0.1524 0.16933,-0.26529 0.10724,-0.11288 0.254,-0.17497 0.1524,-0.0677 0.33867,-0.0677 0.18062,0 0.32737,0.0677 0.1524,0.0621 0.25965,0.17497 0.11289,0.10725 0.17498,0.25965 0.0677,0.1524 0.079,0.32173 z m 0.46284,0.8128 h -0.47413 q -0.0621,0.28787 -0.25964,0.42898 -0.19192,0.14111 -0.49672,0.14111 -0.23706,0 -0.41204,-0.079 -0.17498,-0.079 -0.28787,-0.20885 -0.11289,-0.13546 -0.16369,-0.3048 -0.0508,-0.17497 -0.0452,-0.36689 h 2.1844 q 0.0113,-0.26528 -0.0508,-0.55879 -0.0564,-0.29352 -0.21449,-0.54187 -0.1524,-0.24836 -0.41205,-0.4064 -0.25399,-0.16369 -0.64346,-0.16369 -0.29916,0 -0.55316,0.11289 -0.24835,0.11289 -0.43462,0.31609 -0.18062,0.2032 -0.28222,0.47978 -0.1016,0.27657 -0.1016,0.6096 0.0113,0.33302 0.096,0.61524 0.0903,0.28222 0.26528,0.48542 0.17498,0.2032 0.42898,0.31609 0.25965,0.11289 0.6096,0.11289 0.49671,0 0.82409,-0.24836 0.32738,-0.24835 0.42333,-0.73942 z m 2.56752,-1.17404 v -1.47885 h 1.04987 q 0.45719,0 0.66604,0.19192 0.21449,0.18626 0.21449,0.54751 0,0.36124 -0.21449,0.55315 -0.20885,0.19191 -0.66604,0.18627 z m -0.53622,-1.9304 v 4.03013 h 0.53622 v -1.64818 h 1.23049 q 0.6096,0.006 0.92004,-0.31044 0.31609,-0.31609 0.31609,-0.88053 0,-0.56445 -0.31609,-0.87489 -0.31044,-0.31609 -0.92004,-0.31609 z m 5.52556,2.29164 h -1.6764 q 0.0113,-0.16933 0.0734,-0.31609 0.0621,-0.1524 0.16933,-0.26529 0.10724,-0.11288 0.254,-0.17497 0.1524,-0.0677 0.33867,-0.0677 0.18062,0 0.32737,0.0677 0.1524,0.0621 0.25965,0.17497 0.11289,0.10725 0.17498,0.25965 0.0677,0.1524 0.079,0.32173 z m 0.46284,0.8128 h -0.47413 q -0.0621,0.28787 -0.25965,0.42898 -0.19191,0.14111 -0.49671,0.14111 -0.23706,0 -0.41204,-0.079 -0.17498,-0.079 -0.28787,-0.20885 -0.11289,-0.13546 -0.16369,-0.3048 -0.0508,-0.17497 -0.0452,-0.36689 h 2.1844 q 0.0113,-0.26528 -0.0508,-0.55879 -0.0564,-0.29352 -0.21449,-0.54187 -0.1524,-0.24836 -0.41205,-0.4064 -0.254,-0.16369 -0.64346,-0.16369 -0.29916,0 -0.55316,0.11289 -0.24835,0.11289 -0.43462,0.31609 -0.18062,0.2032 -0.28222,0.47978 -0.1016,0.27657 -0.1016,0.6096 0.0113,0.33302 0.0959,0.61524 0.0903,0.28222 0.26529,0.48542 0.17498,0.2032 0.42898,0.31609 0.25964,0.11289 0.6096,0.11289 0.49671,0 0.82409,-0.24836 0.32738,-0.24835 0.42333,-0.73942 z m 0.44556,-1.99249 v 2.91818 h 0.47978 v -1.29822 q 0,-0.28222 0.0564,-0.49671 0.0564,-0.22014 0.18062,-0.37254 0.12418,-0.1524 0.32738,-0.23142 0.2032,-0.079 0.49107,-0.079 v -0.508 q -0.38947,-0.0113 -0.64347,0.15804 -0.254,0.16934 -0.42898,0.52494 h -0.0113 v -0.61525 z m 2.01471,0.42334 v 2.49484 h 0.47978 v -2.49484 h 0.56445 v -0.42334 h -0.56445 v -0.4064 q 0,-0.19191 0.096,-0.25964 0.096,-0.0677 0.27093,-0.0677 0.0621,0 0.13547,0.0113 0.0734,0.006 0.13546,0.0282 v -0.41769 q -0.0677,-0.0226 -0.15804,-0.0339 -0.0847,-0.0113 -0.1524,-0.0113 -0.39511,0 -0.60396,0.18627 -0.2032,0.18062 -0.2032,0.53622 v 0.43462 h -0.49106 v 0.42334 z m 1.74378,1.03857 q 0,-0.26528 0.0677,-0.46848 0.0734,-0.20885 0.19756,-0.34996 0.12418,-0.14111 0.28787,-0.21449 0.16933,-0.0734 0.3556,-0.0734 0.18626,0 0.34995,0.0734 0.16933,0.0734 0.29351,0.21449 0.12418,0.14111 0.19191,0.34996 0.0734,0.2032 0.0734,0.46848 0,0.26529 -0.0734,0.47414 -0.0677,0.2032 -0.19191,0.34431 -0.12418,0.13546 -0.29351,0.20884 -0.16369,0.0734 -0.34995,0.0734 -0.18627,0 -0.3556,-0.0734 -0.16369,-0.0734 -0.28787,-0.20884 -0.12418,-0.14111 -0.19756,-0.34431 -0.0677,-0.20885 -0.0677,-0.47414 z m -0.508,0 q 0,0.32174 0.0903,0.59831 0.0903,0.27658 0.27094,0.48543 0.18062,0.2032 0.44591,0.32173 0.26528,0.11289 0.6096,0.11289 0.34995,0 0.6096,-0.11289 0.26528,-0.11853 0.44591,-0.32173 0.18062,-0.20885 0.27093,-0.48543 0.0903,-0.27657 0.0903,-0.59831 0,-0.32173 -0.0903,-0.59831 -0.0903,-0.28222 -0.27093,-0.48542 -0.18063,-0.20884 -0.44591,-0.32738 -0.25965,-0.11853 -0.6096,-0.11853 -0.34432,0 -0.6096,0.11853 -0.26529,0.11854 -0.44591,0.32738 -0.18063,0.2032 -0.27094,0.48542 -0.0903,0.27658 -0.0903,0.59831 z m 3.30164,-1.46191 v 2.91818 h 0.47978 v -1.29822 q 0,-0.28222 0.0564,-0.49671 0.0564,-0.22014 0.18063,-0.37254 0.12417,-0.1524 0.32737,-0.23142 0.2032,-0.079 0.49107,-0.079 v -0.508 q -0.38947,-0.0113 -0.64347,0.15804 -0.254,0.16934 -0.42897,0.52494 h -0.0113 v -0.61525 z m 1.81716,0 v 2.91818 h 0.47978 v -1.81751 q 0,-0.0847 0.0395,-0.20884 0.0452,-0.12983 0.13546,-0.24836 0.096,-0.11853 0.24272,-0.2032 0.1524,-0.0847 0.36124,-0.0847 0.16369,0 0.26529,0.0508 0.10724,0.0452 0.16933,0.13547 0.0621,0.0847 0.0847,0.2032 0.0282,0.11853 0.0282,0.25964 v 1.91347 h 0.47978 v -1.81751 q 0,-0.33867 0.2032,-0.54187 0.2032,-0.2032 0.5588,-0.2032 0.17498,0 0.28222,0.0508 0.11289,0.0508 0.17498,0.14111 0.0621,0.0847 0.0847,0.2032 0.0226,0.11854 0.0226,0.254 v 1.91347 h 0.47978 v -2.13924 q 0,-0.22578 -0.0734,-0.38383 -0.0677,-0.16368 -0.19755,-0.26528 -0.12418,-0.1016 -0.3048,-0.14676 -0.17498,-0.0508 -0.39511,-0.0508 -0.28787,0 -0.53058,0.12982 -0.23707,0.12982 -0.38382,0.36689 -0.0903,-0.27093 -0.31045,-0.38382 -0.22013,-0.11289 -0.49106,-0.11289 -0.61525,0 -0.94263,0.49671 h -0.0113 v -0.42898 z m 7.32049,2.90689 q -0.12418,0.0734 -0.34431,0.0734 -0.18627,0 -0.29916,-0.1016 -0.10724,-0.10725 -0.10724,-0.34431 -0.19756,0.23706 -0.46284,0.34431 -0.25965,0.1016 -0.56445,0.1016 -0.19755,0 -0.37818,-0.0452 -0.17497,-0.0452 -0.3048,-0.14111 -0.12982,-0.096 -0.20884,-0.24835 -0.0734,-0.15805 -0.0734,-0.37818 0,-0.24836 0.0847,-0.4064 0.0847,-0.15805 0.22013,-0.254 0.14111,-0.1016 0.31609,-0.1524 0.18062,-0.0508 0.36689,-0.0847 0.19755,-0.0395 0.37253,-0.0564 0.18062,-0.0226 0.31609,-0.0564 0.13547,-0.0395 0.21449,-0.10724 0.079,-0.0734 0.079,-0.20884 0,-0.15805 -0.0621,-0.254 -0.0564,-0.096 -0.1524,-0.14676 -0.0903,-0.0508 -0.20884,-0.0677 -0.11289,-0.0169 -0.22578,-0.0169 -0.3048,0 -0.508,0.11854 -0.2032,0.11289 -0.22013,0.43462 h -0.47978 q 0.0113,-0.27093 0.11289,-0.4572 0.1016,-0.18627 0.27093,-0.29916 0.16934,-0.11853 0.38382,-0.16933 0.22014,-0.0508 0.46849,-0.0508 0.19756,0 0.38947,0.0282 0.19755,0.0282 0.3556,0.11854 0.15804,0.0847 0.254,0.24271 0.0959,0.15804 0.0959,0.41204 v 1.50142 q 0,0.16934 0.0169,0.24836 0.0226,0.079 0.13546,0.079 0.0621,0 0.14676,-0.0282 z m -0.77893,-1.49578 q -0.0903,0.0677 -0.23707,0.1016 -0.14675,0.0282 -0.31044,0.0508 -0.15805,0.0169 -0.32174,0.0452 -0.16369,0.0226 -0.29351,0.079 -0.12982,0.0564 -0.21449,0.16369 -0.079,0.1016 -0.079,0.28222 0,0.11854 0.0452,0.2032 0.0508,0.079 0.12417,0.12982 0.079,0.0508 0.18063,0.0734 0.1016,0.0226 0.21449,0.0226 0.23706,0 0.4064,-0.0621 0.16933,-0.0677 0.27657,-0.16369 0.10725,-0.1016 0.15805,-0.21449 0.0508,-0.11853 0.0508,-0.22013 z m 1.14547,-1.41111 v 2.91818 h 0.47978 v -1.64818 q 0,-0.19755 0.0508,-0.36124 0.0564,-0.16933 0.16369,-0.29351 0.10724,-0.12418 0.26529,-0.19191 0.16368,-0.0677 0.38382,-0.0677 0.27658,0 0.43462,0.15805 0.15804,0.15804 0.15804,0.42898 v 1.97555 h 0.47978 v -1.91911 q 0,-0.23707 -0.0508,-0.42898 -0.0452,-0.19755 -0.16369,-0.33866 -0.11853,-0.14112 -0.31044,-0.22014 -0.19191,-0.079 -0.47978,-0.079 -0.64911,0 -0.94827,0.53058 h -0.0113 v -0.46285 z m 5.04013,0.93698 h 0.49671 q -0.0282,-0.25964 -0.13546,-0.44591 -0.10725,-0.19191 -0.27658,-0.31609 -0.16369,-0.12418 -0.38382,-0.18062 -0.21449,-0.0621 -0.46285,-0.0621 -0.34431,0 -0.60395,0.12418 -0.25965,0.11853 -0.43462,0.33302 -0.16934,0.20884 -0.254,0.49671 -0.0847,0.28222 -0.0847,0.6096 0,0.32738 0.0847,0.60396 0.0903,0.27093 0.25964,0.46848 0.17498,0.19756 0.42898,0.3048 0.25964,0.10725 0.59266,0.10725 0.5588,0 0.88054,-0.29351 0.32737,-0.29351 0.4064,-0.83538 h -0.49107 q -0.0452,0.33867 -0.24836,0.52493 -0.19755,0.18627 -0.55315,0.18627 -0.22578,0 -0.38947,-0.0903 -0.16369,-0.0903 -0.26529,-0.23707 -0.1016,-0.1524 -0.1524,-0.34431 -0.0452,-0.19191 -0.0452,-0.39511 0,-0.22013 0.0452,-0.42333 0.0452,-0.20885 0.14676,-0.36689 0.10724,-0.15805 0.28222,-0.254 0.17498,-0.096 0.43462,-0.096 0.3048,0 0.48543,0.1524 0.18062,0.1524 0.23706,0.42898 z m 2.99685,0.24271 h -1.6764 q 0.0113,-0.16933 0.0734,-0.31609 0.0621,-0.1524 0.16933,-0.26529 0.10725,-0.11288 0.254,-0.17497 0.1524,-0.0677 0.33867,-0.0677 0.18062,0 0.32737,0.0677 0.1524,0.0621 0.25965,0.17497 0.11289,0.10725 0.17498,0.25965 0.0677,0.1524 0.079,0.32173 z m 0.46284,0.8128 h -0.47413 q -0.0621,0.28787 -0.25964,0.42898 -0.19192,0.14111 -0.49672,0.14111 -0.23706,0 -0.41204,-0.079 -0.17498,-0.079 -0.28787,-0.20885 -0.11288,-0.13546 -0.16368,-0.3048 -0.0508,-0.17497 -0.0452,-0.36689 h 2.1844 q 0.0113,-0.26528 -0.0508,-0.55879 -0.0564,-0.29352 -0.21449,-0.54187 -0.1524,-0.24836 -0.41204,-0.4064 -0.254,-0.16369 -0.64347,-0.16369 -0.29916,0 -0.55316,0.11289 -0.24835,0.11289 -0.43462,0.31609 -0.18062,0.2032 -0.28222,0.47978 -0.1016,0.27657 -0.1016,0.6096 0.0113,0.33302 0.096,0.61524 0.0903,0.28222 0.26528,0.48542 0.17498,0.2032 0.42898,0.31609 0.25965,0.11289 0.6096,0.11289 0.49671,0 0.82409,-0.24836 0.32738,-0.24835 0.42333,-0.73942 z m 2.05388,-3.10444 v 4.03013 h 0.53622 v -4.03013 z m 1.28093,1.11195 v 2.91818 h 0.47978 v -1.64818 q 0,-0.19755 0.0508,-0.36124 0.0564,-0.16933 0.16369,-0.29351 0.10724,-0.12418 0.26529,-0.19191 0.16369,-0.0677 0.38382,-0.0677 0.27658,0 0.43462,0.15805 0.15805,0.15804 0.15805,0.42898 v 1.97555 h 0.47977 v -1.91911 q 0,-0.23707 -0.0508,-0.42898 -0.0452,-0.19755 -0.16368,-0.33866 -0.11854,-0.14112 -0.31045,-0.22014 -0.19191,-0.079 -0.47978,-0.079 -0.64911,0 -0.94826,0.53058 h -0.0113 v -0.46285 z m 3.4089,1.48449 q 0,-0.21449 0.0451,-0.41769 0.0452,-0.2032 0.14676,-0.36124 0.1016,-0.15805 0.27093,-0.254 0.16933,-0.096 0.41204,-0.096 0.24836,0 0.42334,0.096 0.17497,0.0903 0.28222,0.24271 0.11289,0.1524 0.16369,0.3556 0.0508,0.19756 0.0508,0.41204 0,0.2032 -0.0508,0.40076 -0.0452,0.19755 -0.1524,0.3556 -0.10725,0.1524 -0.27658,0.24835 -0.16933,0.096 -0.41204,0.096 -0.23143,0 -0.4064,-0.0903 -0.16934,-0.0903 -0.28223,-0.24271 -0.10724,-0.1524 -0.16368,-0.34431 -0.0508,-0.19756 -0.0508,-0.40076 z m 2.25777,1.43369 v -4.03013 h -0.47978 v 1.50142 h -0.0113 q -0.079,-0.12982 -0.19756,-0.21449 -0.11289,-0.0903 -0.24271,-0.14111 -0.12982,-0.0564 -0.25964,-0.079 -0.12983,-0.0226 -0.24272,-0.0226 -0.33302,0 -0.58702,0.12418 -0.24835,0.11853 -0.41769,0.32738 -0.16368,0.2032 -0.24835,0.47977 -0.079,0.27658 -0.079,0.58703 0,0.31044 0.0847,0.58702 0.0847,0.27657 0.24836,0.48542 0.16933,0.20884 0.41769,0.33302 0.254,0.12418 0.59266,0.12418 0.3048,0 0.5588,-0.10725 0.254,-0.10724 0.37254,-0.34995 h 0.0113 v 0.39511 z m 2.6864,-1.73849 h -1.6764 q 0.0113,-0.16933 0.0734,-0.31609 0.0621,-0.1524 0.16933,-0.26529 0.10725,-0.11288 0.254,-0.17497 0.1524,-0.0677 0.33867,-0.0677 0.18062,0 0.32738,0.0677 0.1524,0.0621 0.25964,0.17497 0.11289,0.10725 0.17498,0.25965 0.0677,0.1524 0.079,0.32173 z m 0.46285,0.8128 h -0.47414 q -0.0621,0.28787 -0.25964,0.42898 -0.19191,0.14111 -0.49671,0.14111 -0.23707,0 -0.41205,-0.079 -0.17497,-0.079 -0.28786,-0.20885 -0.11289,-0.13546 -0.16369,-0.3048 -0.0508,-0.17497 -0.0452,-0.36689 h 2.1844 q 0.0113,-0.26528 -0.0508,-0.55879 -0.0564,-0.29352 -0.21449,-0.54187 -0.1524,-0.24836 -0.41204,-0.4064 -0.254,-0.16369 -0.64347,-0.16369 -0.29915,0 -0.55315,0.11289 -0.24836,0.11289 -0.43463,0.31609 -0.18062,0.2032 -0.28222,0.47978 -0.1016,0.27657 -0.1016,0.6096 0.0113,0.33302 0.096,0.61524 0.0903,0.28222 0.26529,0.48542 0.17497,0.2032 0.42897,0.31609 0.25965,0.11289 0.6096,0.11289 0.49671,0 0.82409,-0.24836 0.32738,-0.24835 0.42334,-0.73942 z m 1.24707,-0.6096 -1.09502,1.53529 h 0.58138 l 0.8128,-1.20791 0.8128,1.20791 h 0.61524 l -1.12889,-1.5748 1.00471,-1.34338 h -0.57573 l -0.72813,1.02165 -0.69991,-1.02165 h -0.61525 z"
         id="text4"
         style="font-size:5.64444px;line-height:1.9;font-family:'Helvetica Neue';-inkscape-font-specification:'Helvetica Neue';text-align:center;letter-spacing:-0.079375px;word-spacing:0px;text-anchor:middle;fill:#1b203a;stroke-width:1.007"
         aria-label="LIVE Referee Performance Index" /></g></g></svg>
