<?xml version="1.0" encoding="UTF-8" standalone="no"?>
<!-- Created with Inkscape (http://www.inkscape.org/) -->

<svg
   width="1280"
   height="296"
   viewBox="0 0 338.66666 78.316685"
   version="1.1"
   id="svg1"
   xml:space="preserve"
   inkscape:version="1.4.2 (ebf0e940, 2025-05-08)"
   sodipodi:docname="rugbyref-logo.svg"
   xmlns:inkscape="http://www.inkscape.org/namespaces/inkscape"
   xmlns:sodipodi="http://sodipodi.sourceforge.net/DTD/sodipodi-0.dtd"
   xmlns="http://www.w3.org/2000/svg"
   xmlns:svg="http://www.w3.org/2000/svg"><sodipodi:namedview
     id="namedview1"
     pagecolor="#ffffff"
     bordercolor="#000000"
     borderopacity="0.25"
     inkscape:showpageshadow="2"
     inkscape:pageopacity="0.0"
     inkscape:pagecheckerboard="0"
     inkscape:deskcolor="#d1d1d1"
     inkscape:document-units="mm"
     inkscape:zoom="0.70911897"
     inkscape:cx="451.96929"
     inkscape:cy="74.740632"
     inkscape:window-width="1880"
     inkscape:window-height="945"
     inkscape:window-x="17"
     inkscape:window-y="25"
     inkscape:window-maximized="0"
     inkscape:current-layer="layer1" /><defs
     id="defs1"><linearGradient
       id="linearGradient8"
       x1="76.323006"
       y1="739.28235"
       x2="851.82892"
       y2="198.82033"
       gradientUnits="userSpaceOnUse"
       href="#linearGradient7"
       gradientTransform="matrix(0.26458333,0,0,0.26458333,2.4483306,8.4400433)" /><linearGradient
       id="linearGradient7"><stop
         style="stop-color:#02fff7;stop-opacity:1;"
         offset="0.17378917"
         id="stop7" /><stop
         style="stop-color:#001bfe;stop-opacity:1;"
         offset="1"
         id="stop8" /></linearGradient><linearGradient
       id="linearGradient10"
       x1="362.74731"
       y1="709.17529"
       x2="868.34106"
       y2="204.61108"
       gradientUnits="userSpaceOnUse"
       href="#linearGradient9"
       gradientTransform="matrix(0.26458333,0,0,0.26458333,2.4483306,8.4400433)" /><linearGradient
       id="linearGradient9"><stop
         style="stop-color:#02fff7;stop-opacity:1;"
         offset="0"
         id="stop9" /><stop
         style="stop-color:#000aff;stop-opacity:1;"
         offset="1"
         id="stop10" /></linearGradient></defs><g
     inkscape:label="Layer 1"
     inkscape:groupmode="layer"
     id="layer1"><path
       d="m 16.493899,33.022856 h 9.518584 q 4.81358,0 7.310851,-2.099156 2.533464,-2.135348 2.533464,-6.152697 0,-3.944964 -2.352502,-5.863158 -2.316309,-1.918194 -7.12989,-1.918194 H 16.493899 Z M 7.5543918,61.180492 V 8.8463757 H 26.157252 q 9.410007,0 14.187395,3.9449643 4.777389,3.908772 4.777389,11.61774 0,5.573619 -2.605848,9.410007 -2.569656,3.800195 -7.708968,5.790774 L 47.184999,61.180492 H 37.051145 L 25.759136,40.804208 H 16.493899 V 61.180492 Z M 83.370096,23.468079 V 61.180492 H 75.37159 v -3.474464 q -2.207733,2.099156 -4.885966,3.148733 -2.64204,1.049578 -5.646004,1.049578 -5.790774,0 -9.156661,-3.510656 -3.365887,-3.510657 -3.365887,-9.663354 v -25.26225 h 7.998506 v 23.778364 q 0,3.619234 1.628655,5.537428 1.664848,1.882001 4.813581,1.882001 3.691618,0 6.152697,-2.461079 2.461079,-2.497271 2.461079,-6.297466 V 23.468079 Z m 31.986784,17.04659 q 0,-5.211696 -2.13535,-7.853737 -2.09916,-2.678233 -6.18889,-2.678233 -4.05354,0 -6.33366,2.750618 -2.243923,2.750617 -2.243923,7.781352 0,4.994542 2.243923,7.74516 2.28012,2.750617 6.33366,2.750617 4.08973,0 6.18889,-2.64204 2.13535,-2.678233 2.13535,-7.853737 z m 0,14.295972 q -1.80962,1.918194 -4.19831,2.859195 -2.3525,0.904808 -5.42885,0.904808 -7.021316,0 -11.400589,-4.922157 -4.34308,-4.95835 -4.34308,-12.993049 0,-8.107083 4.306888,-13.02924 4.34308,-4.922158 11.436781,-4.922158 3.04015,0 5.39265,0.941001 2.35251,0.904808 4.23451,2.859194 v -3.040156 h 7.9985 v 31.704486 q 0,4.162118 -0.36192,6.04412 -0.32573,1.882001 -1.12196,3.438272 -1.70104,3.329694 -5.75458,5.175504 -4.01735,1.882001 -9.59097,1.882001 -6.912738,0 -10.966279,-2.967772 -4.01735,-2.931579 -4.379273,-8.21566 h 9.265242 q 0.28953,2.026771 1.66484,2.93158 1.37531,0.904808 4.2707,0.904808 4.84977,0 6.91273,-1.628655 2.06297,-1.592463 2.06297,-5.320273 z m 24.92928,-12.450163 q 0,6.152697 2.02677,9.084276 2.06296,2.931579 6.33366,2.931579 4.30689,0 6.65939,-3.148733 2.38869,-3.184925 2.38869,-8.867122 0,-5.718389 -2.38869,-8.867122 -2.3525,-3.148733 -6.65939,-3.148733 -4.2345,0 -6.29747,2.967771 -2.06296,2.931579 -2.06296,9.048084 z m 0,18.820014 h -7.99851 V 8.8463757 h 7.99851 V 26.870159 q 1.882,-2.135348 4.2707,-3.148734 2.42488,-1.013385 5.50123,-1.013385 7.23847,0 11.65393,5.392658 4.45166,5.356466 4.45166,14.25978 0,8.903315 -4.45166,14.295973 -4.41546,5.356465 -11.65393,5.356465 -3.07635,0 -5.50123,-1.013385 -2.3887,-1.049578 -4.2707,-3.148733 z m 32.13156,3.184926 h 4.59642 q 1.99058,0 2.8592,-0.723847 0.90481,-0.723847 0.90481,-2.316309 0,-0.253347 -0.10858,-0.687655 -0.0724,-0.4705 -0.25335,-1.08577 L 168.76229,23.468079 h 8.54139 l 6.44224,21.244901 q 0.36192,1.230539 0.65146,2.605848 0.28954,1.339116 0.54288,2.931579 0.18097,-1.447693 0.47051,-2.859194 0.32573,-1.411501 0.72384,-2.678233 l 5.89935,-21.244901 h 8.54139 l -11.65393,37.712413 q -1.91819,6.261274 -4.2345,8.21566 -2.31631,1.954387 -6.94893,1.954387 h -5.32027 z m 43.53214,-31.342562 h 9.51859 q 4.81358,0 7.31085,-2.099156 2.53346,-2.135348 2.53346,-6.152697 0,-3.944964 -2.3525,-5.863158 -2.31631,-1.918194 -7.12989,-1.918194 h -9.88051 z m -8.93951,28.157636 V 8.8463757 h 18.60287 q 9.41,0 14.18739,3.9449643 4.77739,3.908772 4.77739,11.61774 0,5.573619 -2.60585,9.410007 -2.56966,3.800195 -7.70897,5.790774 l 12.37778,21.570631 H 236.50711 L 225.2151,40.804208 h -9.26524 v 20.376284 z m 47.25995,0 V 8.8463757 h 34.81703 v 8.0708903 h -25.87752 v 12.993049 h 23.88694 v 7.998506 h -23.88694 v 15.128396 h 26.9271 v 8.143275 z m 44.50934,0 V 8.8463757 h 33.26076 v 8.2156603 h -24.32125 v 12.631125 h 22.54782 v 8.143275 h -22.54782 v 23.344056 z"
       id="text3"
       style="font-size:74.1219px;line-height:1.2;font-family:'Gothic725 Bd BT';-inkscape-font-specification:'Gothic725 Bd BT';letter-spacing:-0.115815px;word-spacing:0px;fill:#0afff7;stroke:#000000;stroke-width:0.482903"
       aria-label="RugbyREF" /></g></svg>
