<?xml version="1.0" encoding="UTF-8" standalone="no"?>
<!-- Created with Inkscape (http://www.inkscape.org/) -->

<svg
   width="136mm"
   height="51mm"
   viewBox="0 0 136 51"
   version="1.1"
   id="svg1"
   inkscape:version="1.4.2 (ebf0e940, 2025-05-08)"
   sodipodi:docname="sideline_manager.svg"
   inkscape:export-filename="../logo_sideline.png"
   inkscape:export-xdpi="192"
   inkscape:export-ydpi="192"
   xmlns:inkscape="http://www.inkscape.org/namespaces/inkscape"
   xmlns:sodipodi="http://sodipodi.sourceforge.net/DTD/sodipodi-0.dtd"
   xmlns="http://www.w3.org/2000/svg"
   xmlns:svg="http://www.w3.org/2000/svg">
  <sodipodi:namedview
     id="namedview1"
     pagecolor="#ffffff"
     bordercolor="#000000"
     borderopacity="0.25"
     inkscape:showpageshadow="2"
     inkscape:pageopacity="0.0"
     inkscape:pagecheckerboard="0"
     inkscape:deskcolor="#d1d1d1"
     inkscape:document-units="mm"
     inkscape:zoom="0.90509668"
     inkscape:cx="181.74854"
     inkscape:cy="-106.06602"
     inkscape:window-width="1824"
     inkscape:window-height="945"
     inkscape:window-x="0"
     inkscape:window-y="25"
     inkscape:window-maximized="0"
     inkscape:current-layer="layer1"
     showgrid="false" />
  <defs
     id="defs1" />
  <g
     inkscape:label="Layer 1"
     inkscape:groupmode="layer"
     id="layer1">
    <g
       id="g4"
       transform="matrix(1.0021323,0,0,1.001232,-15.778606,53.478837)">
      <g
         id="g2">
        <path
           id="path34"
           style="font-size:25.2856px;line-height:1.3;font-family:HandelGotDBol;-inkscape-font-specification:HandelGotDBol;letter-spacing:1.32292px;word-spacing:0px;fill:#ffffff;stroke-width:0.998101"
           d="m 46.487085,-52.913566 v 21.140828 h 0.0956 l 1.821595,-4.477246 0.0078,-0.01757 c 0.165826,-0.375666 0.305126,-0.679353 0.423747,-0.921907 0.118622,-0.242555 0.166686,-0.377894 0.367419,-0.644405 l 0.02325,-0.03152 0.02532,-0.02894 c 0.434318,-0.512573 1.094208,-0.681612 1.5844,-0.681612 0.03642,0 0.07316,0.0017 0.110587,0.0052 v -10.578683 h 4.444173 c 1.712103,0 2.96858,0.355715 3.768246,1.068152 0.553613,0.505933 0.993816,1.28053 1.321883,2.323372 0.338321,1.042842 0.507979,2.18351 0.507979,3.422531 0,1.125444 -0.143921,2.189477 -0.430981,3.191019 -0.276806,0.991217 -0.645564,1.754941 -1.106909,2.29185 -0.50264,0.58147 -1.273027,0.965717 -2.298051,1.161686 l -4.28191,0.10697 c -1.4e-5,0.02188 0,0.04382 0,0.06615 v 3.731039 l 4.209046,-0.0088 0.001,-0.0067 h 5.17e-4 c 1.118086,-0.03797 2.016505,-0.113671 2.66082,-0.233578 0.953447,-0.175527 1.830666,-0.521922 2.63033,-1.038179 1.271263,-0.815689 2.178437,-2.09046 2.721798,-3.82509 0.543362,-1.693327 0.814937,-3.495198 0.814937,-5.405355 0,-1.930807 -0.287328,-3.737338 -0.861446,-5.420341 -0.748405,-2.199261 -2.244951,-3.707032 -4.490165,-4.522721 -1.220001,-0.443982 -2.942417,-0.666109 -5.167127,-0.666109 z" />
        <path
           id="path33"
           style="font-size:25.2856px;line-height:1.3;font-family:HandelGotDBol;-inkscape-font-specification:HandelGotDBol;letter-spacing:1.32292px;word-spacing:0px;fill:#ffffff;stroke-width:0.998101"
           d="m 38.735103,-52.913566 v 6.11849 8.904366 6.117972 h 4.459676 v -0.07596 -20.9889 -0.07596 z" />
        <path
           style="font-size:25.2856px;line-height:1.3;font-family:HandelGotDBol;-inkscape-font-specification:HandelGotDBol;letter-spacing:1.32292px;word-spacing:0px;fill:#ffffff;stroke-width:0.998101"
           d="m 150.95672,-52.913464 v 3.763529 h -5.82834 q -2.29134,0 -3.33705,0.325243 -1.03035,0.309756 -1.72237,1.223534 -0.46134,0.619512 -0.63049,1.254509 -0.16918,0.634999 -0.2922,2.168289 h 11.81045 v 3.763529 h -11.81045 q 0.23068,2.741335 1.58396,3.809991 1.35328,1.068657 4.59808,1.068657 h 5.62841 v 3.763529 h -5.82834 q -2.36823,0 -4.16748,-0.294268 -2.82959,-0.464633 -4.50581,-2.493532 -2.38362,-2.911701 -2.38362,-7.898763 0,-5.529135 3.36782,-8.595714 1.15337,-1.03768 2.46052,-1.440363 1.30714,-0.41817 3.50622,-0.41817 z"
           id="path39" />
        <path
           style="font-size:25.2856px;line-height:1.3;font-family:HandelGotDBol;-inkscape-font-specification:HandelGotDBol;letter-spacing:1.32292px;word-spacing:0px;fill:#ffffff;stroke-width:0.998101"
           d="m 117.31681,-47.275915 v 15.503261 h -4.25975 v -21.14081 h 5.72069 l 8.35035,15.751065 v -15.751065 h 4.25977 v 21.14081 h -5.50541 z"
           id="path38" />
        <path
           style="font-size:25.2856px;line-height:1.3;font-family:HandelGotDBol;-inkscape-font-specification:HandelGotDBol;letter-spacing:1.32292px;word-spacing:0px;fill:#ffffff;stroke-width:0.998101"
           d="m 105.30494,-31.772654 v -21.14081 h 4.45968 v 21.14081 z"
           id="path37" />
        <path
           style="font-size:25.2856px;line-height:1.3;font-family:HandelGotDBol;-inkscape-font-specification:HandelGotDBol;letter-spacing:1.32292px;word-spacing:0px;fill:#ffffff;stroke-width:0.998101"
           d="m 88.221002,-52.913464 h 4.459674 v 11.863634 q 0.09227,2.261215 0.199918,3.004627 0.215293,1.440363 1.368658,1.982435 1.168743,0.526585 4.090599,0.526585 h 4.290529 v 3.763529 h -4.751875 q -3.367824,0.01549 -4.890264,-0.387195 -3.475472,-1.022193 -4.398163,-4.444991 -0.353698,-1.31646 -0.369076,-4.44499 z"
           id="path36" />
        <path
           style="font-size:25.2856px;line-height:1.3;font-family:HandelGotDBol;-inkscape-font-specification:HandelGotDBol;letter-spacing:1.32292px;word-spacing:0px;fill:#ffffff;stroke-width:0.998101"
           d="m 85.39897,-52.913464 v 3.763529 h -5.828333 q -2.29135,0 -3.337067,0.325243 -1.03034,0.309756 -1.722358,1.223534 -0.461345,0.619512 -0.630506,1.254509 -0.16916,0.634999 -0.292186,2.168289 h 11.81045 v 3.763529 H 73.58852 q 0.230674,2.741335 1.583954,3.809991 1.353281,1.068657 4.598079,1.068657 h 5.628417 v 3.763529 h -5.828333 q -2.368242,0 -4.16749,-0.294268 -2.829587,-0.464633 -4.50581,-2.493532 -2.383619,-2.911701 -2.383619,-7.898763 0,-5.529135 3.367823,-8.595714 1.153365,-1.03768 2.460511,-1.440363 1.307146,-0.41817 3.506227,-0.41817 z"
           id="path35" />
        <path
           id="text1"
           style="font-size:25.2856px;line-height:1.3;font-family:HandelGotDBol;-inkscape-font-specification:HandelGotDBol;letter-spacing:1.32292px;word-spacing:0px;fill:#ffffff;stroke-width:0.998101"
           d="m 24.37939,-52.913566 c -1.240508,0 -2.173414,0.03106 -2.798795,0.09302 -1.855635,0.196179 -3.204039,0.88793 -4.044714,2.075326 -0.86118,1.228696 -1.291911,2.58631 -1.291911,4.073136 0,0.939592 0.184894,1.82758 0.553971,2.66392 0.369077,0.826014 0.881755,1.512588 1.537891,2.059823 1.045718,0.867315 2.757626,1.301213 5.13612,1.301213 h 3.890719 c 1.076473,0 1.860725,0.134104 2.352828,0.402559 0.689944,0.380519 1.103564,0.936864 1.240751,1.668632 0.50111,0.0061 1.198139,0.213536 1.612305,0.782898 0.174605,0.223561 0.258731,0.379899 0.368969,0.595829 0.125837,0.246486 0.266397,0.549408 0.433566,0.921908 l 0.0098,0.02325 1.064018,2.621029 c 0.241004,-0.27704 0.458823,-0.587093 0.65319,-0.929659 0.584371,-1.022193 0.876432,-2.173214 0.876432,-3.453536 0,-1.166746 -0.225868,-2.261328 -0.676961,-3.283521 -0.553615,-1.269996 -1.573719,-2.157985 -3.060278,-2.66392 -0.850926,-0.29943 -2.137356,-0.449068 -3.859713,-0.449068 h -3.367753 c -1.230256,0 -2.112206,-0.118571 -2.645317,-0.356051 -0.789413,-0.351056 -1.183907,-1.032451 -1.183907,-2.044319 0,-1.197721 0.471706,-1.915362 1.414901,-2.15284 0.461346,-0.113576 1.394253,-0.175709 2.798796,-0.186036 h 9.395809 v -3.763594 z m 4.536158,17.233573 c -0.538319,0.09595 -1.23546,0.143661 -2.091346,0.143661 h -9.580293 v 3.763594 h 10.549227 c 0.399169,0 0.773573,-0.004 1.122928,-0.0124 v -3.732589 c 0,-0.05566 -3.57e-4,-0.109502 -5.16e-4,-0.162264 z" />
      </g>
      <g
         id="g3">
        <path
           style="font-size:28.735px;line-height:1.3;font-family:HoratioDLig;-inkscape-font-specification:HoratioDLig;letter-spacing:0.264583px;word-spacing:0px;fill:#b1ff00;stroke:#b1ff00;stroke-width:0.716053;stroke-dasharray:none"
           d="m 150.59869,-28.179105 v 1.080254 q -2.43124,0.07202 -3.43234,1.296304 -0.98322,1.206284 -0.98322,4.122966 v 9.272175 h -1.12625 v -9.380199 q -0.19665,-6.427508 5.54181,-6.3915 z"
           id="path30" />
        <path
           id="path29"
           style="font-size:28.735px;line-height:1.3;font-family:HoratioDLig;-inkscape-font-specification:HoratioDLig;letter-spacing:0.264583px;word-spacing:0px;fill:#b1ff00;stroke:#b1ff00;stroke-width:0.716053;stroke-dasharray:none"
           d="m 133.89631,-28.50339 c -1.4659,0 -2.83031,0.366292 -4.0936,1.098463 -1.1322,0.660155 -2.05593,1.55446 -2.77101,2.682724 -0.85808,1.356318 -1.28717,2.826397 -1.28717,4.410769 0,2.148503 0.74471,4.027194 2.23445,5.63557 1.56125,1.704401 3.52218,2.556386 5.88191,2.556386 2.32399,0 4.28438,-0.828105 5.88138,-2.484494 0.80881,-0.835193 1.43735,-1.909459 1.88557,-3.222969 h -1.17617 c -0.60559,1.612152 -1.62856,2.836728 -3.06915,3.67335 -1.09644,0.636149 -2.25866,0.954151 -3.48621,0.954151 -1.22755,0 -2.37766,-0.312032 -3.45028,-0.936179 -1.02493,-0.588137 -1.86495,-1.398331 -2.52043,-2.430574 -0.61973,-0.996234 -0.96562,-2.10055 -1.03715,-3.312834 h 13.71176 c 0.64357,0 1.04291,-0.04829 1.19785,-0.144312 0.16684,-0.09602 0.25003,-0.335884 0.25003,-0.719974 0,-0.38409 -0.0771,-0.876282 -0.23206,-1.476423 -0.4648,-1.692397 -1.27559,-3.072924 -2.43164,-4.141175 -1.54931,-1.428335 -3.37861,-2.142479 -5.48808,-2.142479 z m -0.018,1.08049 c 1.23947,0 2.39564,0.312033 3.46825,0.936179 1.25138,0.720168 2.20486,1.740375 2.86034,3.060683 0.38135,0.744175 0.60775,1.566309 0.67927,2.466521 h -13.96179 c 0.15493,-1.824428 0.89965,-3.354736 2.23445,-4.591026 1.34673,-1.248292 2.91988,-1.872357 4.71948,-1.872357 z" />
        <path
           style="font-size:28.735px;line-height:1.3;font-family:HoratioDLig;-inkscape-font-specification:HoratioDLig;letter-spacing:0.264583px;word-spacing:0px;fill:#b1ff00;stroke:#b1ff00;stroke-width:0.716053;stroke-dasharray:none"
           d="m 122.23539,-16.152285 q -0.85808,1.386326 -1.9307,2.232525 -2.28823,1.800421 -5.14853,1.800421 -3.75413,0 -6.13176,-2.898679 -1.93069,-2.322545 -1.93069,-5.293242 0,-2.268531 1.17987,-4.230991 1.14412,-1.908448 3.03906,-2.970698 1.80557,-0.990231 3.87927,-0.990231 3.18208,0 5.50607,2.124498 1.4659,1.332313 2.05584,2.952692 0.6078,1.602376 0.6078,4.248997 v 7.201688 q 0,3.5468314 -1.41227,5.5633038 -1.00109,1.4403376 -2.64577,2.2685318 -1.59104,0.8101908 -3.34296,0.8101908 -3.07481,0 -5.22003,-2.1785117 -2.12736,-2.1605061 -2.10947,-5.2752367 h 1.12623 q 0.0358,1.8364311 0.84022,3.2587643 0.73295,1.3143087 1.96645,2.1064937 1.53742,0.9902323 3.43235,0.9902323 2.35974,0 4.04017,-1.5123546 1.19774,-1.0622491 1.69829,-2.5385946 0.50056,-1.4583418 0.50056,-3.8709081 z m -6.97196,-11.270642 q -3.05694,0 -5.18428,2.304541 -1.85919,2.016472 -1.85919,4.789121 0,2.988702 2.10946,5.095196 2.03795,2.034477 4.91613,2.034477 3.11056,0 5.18428,-2.376558 1.80556,-2.070485 1.80556,-4.645089 0,-3.222755 -2.35975,-5.383261 -1.9307,-1.764415 -4.61221,-1.818427 z"
           id="path28" />
        <path
           style="font-size:28.735px;line-height:1.3;font-family:HoratioDLig;-inkscape-font-specification:HoratioDLig;letter-spacing:0.264583px;word-spacing:0px;fill:#b1ff00;stroke:#b1ff00;stroke-width:0.716053;stroke-dasharray:none"
           d="m 103.47727,-16.152285 q -2.467,4.032946 -7.02559,4.032946 -3.628996,0 -6.006615,-2.682629 -2.055835,-2.340549 -2.055835,-5.509292 0,-3.780886 2.788786,-6.211456 2.252481,-1.980464 5.309419,-1.980464 3.021185,0 5.309415,1.962459 2.09158,1.782419 2.61001,4.483052 0.19664,1.062249 0.19664,3.150738 v 6.499525 h -1.12623 z m -6.918328,-11.270642 q -3.003307,0 -5.130651,2.250527 -1.91282,2.034477 -1.91282,4.879145 0,3.20475 2.395495,5.329248 1.984328,1.764415 4.576469,1.764415 3.039062,0 5.148525,-2.304541 1.82344,-1.980464 1.82344,-4.681097 0,-3.24076 -2.21673,-5.311245 -1.966449,-1.854435 -4.683728,-1.926452 z"
           id="path27" />
        <path
           style="font-size:28.735px;line-height:1.3;font-family:HoratioDLig;-inkscape-font-specification:HoratioDLig;letter-spacing:0.264583px;word-spacing:0px;fill:#b1ff00;stroke:#b1ff00;stroke-width:0.716053;stroke-dasharray:none"
           d="m 85.577236,-12.407406 h -1.126241 v -8.768057 q 0,-1.566367 -0.143014,-2.340549 -0.125132,-0.77418 -0.554182,-1.548362 -0.572059,-1.098257 -1.626793,-1.728405 -1.054733,-0.630148 -2.323988,-0.630148 -2.592141,0 -3.861396,2.232522 -0.44692,0.792187 -0.625689,1.656391 -0.160891,0.864202 -0.160891,2.376556 v 8.750052 h -1.126241 v -8.966103 q 0,-2.86267 0.875965,-4.375026 0.715073,-1.224286 2.037959,-1.980464 1.376516,-0.774181 2.896047,-0.774181 2.002206,0 3.575366,1.260296 1.215626,0.990232 1.680423,2.322544 0.482675,1.332312 0.482675,3.852903 z"
           id="path26" />
        <path
           style="font-size:28.735px;line-height:1.3;font-family:HoratioDLig;-inkscape-font-specification:HoratioDLig;letter-spacing:0.264583px;word-spacing:0px;fill:#b1ff00;stroke:#b1ff00;stroke-width:0.716053;stroke-dasharray:none"
           d="m 69.720153,-16.152285 q -2.467003,4.032946 -7.025595,4.032946 -3.628998,0 -6.006617,-2.682629 -2.055836,-2.340549 -2.055836,-5.509292 0,-3.780886 2.788786,-6.211456 2.252481,-1.980464 5.309419,-1.980464 3.021185,0 5.30942,1.962459 2.09159,1.782419 2.610018,4.483052 0.196645,1.062249 0.196645,3.150738 v 6.499525 h -1.12624 z m -6.918336,-11.270642 q -3.003307,0 -5.13065,2.250527 -1.912821,2.034477 -1.912821,4.879145 0,3.20475 2.395495,5.329248 1.984329,1.764415 4.576469,1.764415 3.039062,0 5.148529,-2.304541 1.823438,-1.980464 1.823438,-4.681097 0,-3.24076 -2.216729,-5.311245 -1.966452,-1.854435 -4.683731,-1.926452 z"
           id="path25" />
        <path
           style="font-size:28.735px;line-height:1.3;font-family:HoratioDLig;-inkscape-font-specification:HoratioDLig;letter-spacing:0.264583px;word-spacing:0px;baseline-shift:baseline;display:inline;overflow:visible;vector-effect:none;fill:#0000ff;enable-background:accumulate;stop-color:#000000"
           d="m 31.510824,-33.899003 v 21.484333 h -1.229893 v -23.103754 q 0,-0.989647 0.130437,-1.331524 0.149077,-0.359873 0.521771,-0.359873 0.39133,0 0.540408,0.215924 0.167713,0.197928 0.652217,1.277543 l 8.75833,21.574299 8.776966,-21.574299 q 0.484503,-1.097608 0.633581,-1.295537 0.167712,-0.19793 0.540408,-0.19793 0.391329,0 0.521772,0.359873 0.149079,0.341877 0.149079,1.331524 v 23.103754 h -1.229894 v -21.484333 l -8.255192,20.134814 q -0.503139,1.187577 -0.652216,1.385506 -0.130437,0.197927 -0.484504,0.197927 -0.335424,0 -0.484504,-0.215921 -0.130435,-0.197929 -0.63358,-1.367512 z"
           id="path1" />
        <path
           style="font-size:28.735px;line-height:1.3;font-family:HoratioDLig;-inkscape-font-specification:HoratioDLig;letter-spacing:0.264583px;word-spacing:0px;fill:#b1ff00;stroke:#b1ff00;stroke-width:0.730858;stroke-dasharray:none"
           d="m 31.510824,-33.899003 v 21.484333 h -1.229893 v -23.103754 q 0,-0.989647 0.130437,-1.331524 0.149077,-0.359873 0.521771,-0.359873 0.39133,0 0.540408,0.215924 0.167713,0.197928 0.652217,1.277543 l 8.75833,21.574299 8.776966,-21.574299 q 0.484503,-1.097608 0.633581,-1.295537 0.167712,-0.19793 0.540408,-0.19793 0.391329,0 0.521772,0.359873 0.149079,0.341877 0.149079,1.331524 v 23.103754 h -1.229894 v -21.484333 l -8.255192,20.134814 q -0.503139,1.187577 -0.652216,1.385506 -0.130437,0.197927 -0.484504,0.197927 -0.335424,0 -0.484504,-0.215921 -0.130435,-0.197929 -0.63358,-1.367512 z"
           id="text2-1" />
      </g>
    </g>
  </g>
</svg>
