<?xml version="1.0" encoding="UTF-8" standalone="no"?>
<!-- Created with Inkscape (http://www.inkscape.org/) -->

<svg
   width="1024"
   height="1024"
   viewBox="0 0 270.93333 270.93333"
   version="1.1"
   id="svg1"
   xml:space="preserve"
   inkscape:version="1.4.2 (ebf0e940, 2025-05-08)"
   sodipodi:docname="TikTok.svg"
   xmlns:inkscape="http://www.inkscape.org/namespaces/inkscape"
   xmlns:sodipodi="http://sodipodi.sourceforge.net/DTD/sodipodi-0.dtd"
   xmlns="http://www.w3.org/2000/svg"
   xmlns:svg="http://www.w3.org/2000/svg"><sodipodi:namedview
     id="namedview1"
     pagecolor="#ffffff"
     bordercolor="#000000"
     borderopacity="0.25"
     inkscape:showpageshadow="2"
     inkscape:pageopacity="0.0"
     inkscape:pagecheckerboard="0"
     inkscape:deskcolor="#d1d1d1"
     inkscape:document-units="mm"
     inkscape:zoom="0.50142283"
     inkscape:cx="451.71457"
     inkscape:cy="394.87632"
     inkscape:window-width="1832"
     inkscape:window-height="945"
     inkscape:window-x="66"
     inkscape:window-y="25"
     inkscape:window-maximized="0"
     inkscape:current-layer="layer1" /><defs
     id="defs1"><linearGradient
       id="linearGradient8"
       x1="76.323006"
       y1="739.28235"
       x2="851.82892"
       y2="198.82033"
       gradientUnits="userSpaceOnUse"
       href="#linearGradient7"
       gradientTransform="matrix(0.26458333,0,0,0.26458333,2.4483306,8.4400433)" /><linearGradient
       id="linearGradient7"><stop
         style="stop-color:#02fff7;stop-opacity:1;"
         offset="0.17378917"
         id="stop7" /><stop
         style="stop-color:#001bfe;stop-opacity:1;"
         offset="1"
         id="stop8" /></linearGradient><linearGradient
       id="linearGradient10"
       x1="362.74731"
       y1="709.17529"
       x2="868.34106"
       y2="204.61108"
       gradientUnits="userSpaceOnUse"
       href="#linearGradient9"
       gradientTransform="matrix(0.26458333,0,0,0.26458333,2.4483306,8.4400433)" /><linearGradient
       id="linearGradient9"><stop
         style="stop-color:#02fff7;stop-opacity:1;"
         offset="0"
         id="stop9" /><stop
         style="stop-color:#000aff;stop-opacity:1;"
         offset="1"
         id="stop10" /></linearGradient><filter
       style="color-interpolation-filters:sRGB;"
       inkscape:label="Feather"
       id="filter6"
       x="-0.026666667"
       y="-0.026666667"
       width="1.0533333"
       height="1.0533333"><feGaussianBlur
         stdDeviation="3"
         result="blur"
         id="feGaussianBlur4" /><feComposite
         in="SourceGraphic"
         in2="blur"
         operator="atop"
         result="composite1"
         id="feComposite4" /><feComposite
         in2="composite1"
         operator="in"
         result="composite2"
         id="feComposite5" /><feComposite
         in2="composite2"
         operator="in"
         result="composite3"
         id="feComposite6" /></filter><filter
       style="color-interpolation-filters:sRGB;"
       inkscape:label="Feather"
       id="filter11"
       x="-0.017777778"
       y="-0.017777778"
       width="1.0355556"
       height="1.0355556"><feGaussianBlur
         stdDeviation="2"
         result="blur"
         id="feGaussianBlur9" /><feComposite
         in="SourceGraphic"
         in2="blur"
         operator="atop"
         result="composite1"
         id="feComposite9" /><feComposite
         in2="composite1"
         operator="in"
         result="composite2"
         id="feComposite10" /><feComposite
         in2="composite2"
         operator="in"
         result="composite3"
         id="feComposite11" /></filter></defs><g
     inkscape:label="Layer 1"
     inkscape:groupmode="layer"
     id="layer1"><g
       id="g11"
       transform="translate(-2.1106735,285.46681)"><rect
         style="fill:#ffffff;fill-opacity:1;stroke:none;stroke-width:1;stroke-dasharray:none;stroke-opacity:1;filter:url(#filter11)"
         id="rect1-2"
         width="270"
         height="270"
         x="2.5773342"
         y="-285.00015"
         ry="22.162498" /><rect
         style="fill:#000000;stroke:#ffffff;stroke-width:1;stroke-dasharray:none;stroke-opacity:1"
         id="rect1"
         width="254.05904"
         height="254.05904"
         x="10.547809"
         y="-277.02969"
         ry="16.376625" /><path
         id="rect1-4"
         style="fill:#ffffff;stroke-width:0.275545"
         d="m 157.50592,-238.7258 c -9.97912,0.0273 -10.50982,0.0376 -10.76274,0.20296 -0.14638,0.096 -0.32681,0.31998 -0.40112,0.49786 -0.11607,0.27777 -0.13508,8.96323 -0.13508,61.67103 0,67.17447 0.0442,61.84081 -0.53743,64.46152 -2.1908,9.86825 -10.46325,17.72243 -20.44745,19.41343 -3.8226,0.6475 -8.22505,0.32796 -11.97092,-0.86871 -4.05176,-1.29439 -7.27609,-3.25973 -10.39707,-6.33738 -0.83938,-0.82774 -1.72616,-1.65608 -1.97065,-1.84083 -0.45651,-0.34488 -1.167164,-1.34997 -2.224994,-3.14735 -1.50785,-2.56197 -2.678042,-5.84271 -3.149829,-8.82994 -0.21437,-1.35741 -0.294441,-4.71095 -0.147159,-6.16224 0.64113,-6.31738 3.136978,-11.61679 7.457422,-15.83313 3.62313,-3.53584 8.22227,-6.03103 12.81691,-6.95364 2.04686,-0.41105 2.76593,-0.47631 5.19851,-0.4727 2.62022,0.007 3.65895,0.1189 6.03601,0.66902 1.60973,0.37257 1.74301,0.38549 1.82308,0.17685 0.0321,-0.0829 0.0582,-6.96741 0.0582,-15.29883 0,-14.28646 -0.01,-15.15929 -0.16693,-15.34887 -0.14565,-0.17548 -0.35505,-0.219 -1.64537,-0.34005 -8.42004,-0.79045 -16.13803,-0.15416 -23.13852,1.90734 -10.166019,2.99376 -19.130754,9.12439 -26.494545,18.1189 -6.512886,7.95509 -10.568593,17.0368 -12.118871,27.13724 -0.903933,5.88928 -0.932785,10.74625 -0.09891,16.59714 1.250503,8.77468 4.278628,16.49939 9.512893,24.26678 1.788292,2.65387 3.399847,4.52726 5.45264,6.3387 0.63125,0.55707 1.729864,1.57142 2.441243,2.25407 2.966001,2.84589 6.92679,5.78514 10.728298,7.96153 6.778182,3.88049 14.243112,6.22506 22.317132,7.00939 2.30941,0.22427 2.2185,0.22152 6.29548,0.19632 3.22862,-0.0206 4.07904,-0.0557 5.52998,-0.23141 6.40615,-0.77611 11.88085,-2.3462 17.80473,-5.1065 10.16451,-4.73623 18.64544,-12.56574 24.59486,-22.70558 1.05703,-1.8015 2.80048,-5.37148 3.56356,-7.297 2.15618,-5.44089 3.38444,-10.97141 3.7815,-17.02638 0.0582,-0.89097 0.0946,-13.47744 0.0953,-33.36123 0,-23.70268 0.0291,-31.93044 0.10926,-31.93044 0.0593,0 0.84866,0.4913 1.75388,1.09157 8.16809,5.41633 16.76006,8.96413 26.21526,10.82496 1.61877,0.31858 4.97073,0.86515 5.3053,0.86515 0.0678,0 0.0909,-5.8304 0.0744,-18.57636 l -0.0243,-18.57643 -1.55614,-0.0644 c -6.05705,-0.25082 -12.00154,-1.77587 -17.37792,-4.45859 -0.91811,-0.45808 -1.84823,-0.94606 -2.06686,-1.08424 -0.21854,-0.13813 -0.4976,-0.2767 -0.61998,-0.3076 -0.12232,-0.0309 -0.71611,-0.48471 -1.31941,-1.00842 -0.60332,-0.52381 -1.52615,-1.28003 -2.0508,-1.68067 -6.43227,-4.91181 -10.92558,-10.59167 -13.82255,-17.47253 -0.82538,-1.96055 -1.54887,-4.15407 -2.15329,-6.52895 -0.59968,-2.35626 -0.69738,-2.55725 -1.3311,-2.74138 -0.22747,-0.0662 -3.80473,-0.0893 -10.83618,-0.0701 z" /></g></g></svg>
